<?xml version="1.0" encoding="UTF-8" standalone="no"?>
<svg
   version="1.0"
   width="430pt"
   height="495pt"
   viewBox="0 0 430 495"
   preserveAspectRatio="xMidYMid"
   id="svg30"
   xmlns="http://www.w3.org/2000/svg"
   xmlns:svg="http://www.w3.org/2000/svg">
  <defs
     id="defs30" />
  <metadata
     id="metadata1">
Created by potrace 1.16, written by Peter Selinger 2001-2019
</metadata>
  <g
     transform="matrix(0.1,0,0,-0.1,45.25,386.21938)"
     fill="#000000"
     stroke="none"
     id="g30">
    <path
       id="path1-8"
       d="m 769.42383,3066.0762 c -5.25453,0.1728 -10.2071,2.9583 -13.48138,7.0095 -3.92899,4.8416 -5.85525,10.9346 -7.21209,16.93 -1.96625,9.0714 -2.62467,18.3897 -2.52854,27.6576 0.29075,14.3026 4.45845,28.2869 10.55013,41.147 7.89395,16.5477 18.8558,31.4675 31.13081,45.0196 16.44534,18.0814 35.34543,33.8325 55.52935,47.5722 23.62245,15.9952 49.1223,29.3005 75.97851,38.9707 21.45442,7.6736 43.86899,13.0423 66.66263,14.3794 5.1145,0.3054 10.23949,0.2823 15.35925,0.4261 14.1489,0.1394 28.3417,-0.6581 42.3084,-2.9957 7.3286,-1.2998 14.7063,-2.9102 21.4625,-6.1264 2.5433,-1.1926 4.7845,-2.9079 7.258,-4.2278 4.0074,-2.2709 8.0412,-4.841 10.6942,-8.704 2.9829,-4.2131 4.0453,-9.7383 2.7238,-14.7418 -1.1967,-4.9095 -4.5051,-8.9926 -8.288,-12.2086 -5.6373,-4.7353 -12.0103,-8.4809 -18.3132,-12.2448 -14.7372,-8.6222 -29.7786,-16.7091 -44.7601,-24.8939 -14.1427,-7.6995 -28.32525,-15.3261 -42.43938,-23.0778 -24.08718,-13.3674 -47.77969,-27.443 -71.09388,-42.1159 -0.27604,-0.1709 -1.01442,-0.6422 -1.46775,-0.9283 -16.99799,-10.7818 -33.85179,-21.8195 -50.08037,-33.7374 -5.02412,-3.6807 -9.91804,-7.5351 -14.70624,-11.517 -12.68554,-10.1831 -25.54026,-20.1767 -38.91817,-29.4396 -5.44355,-3.6834 -10.91563,-7.4126 -16.91602,-10.1424 -2.97104,-1.2931 -6.18698,-2.1901 -9.45246,-2.0107 z"
       style="fill:#1d5184;fill-opacity:1"
       transform="translate(0,-2.5000001e-5)" />
    <path
       id="path1-9"
       d="m 628.31445,3354.5547 c -8.39259,0.012 -17.04159,1.4525 -24.3257,5.8303 -6.36287,3.7461 -11.2887,9.8615 -13.50468,16.9129 -2.58204,7.9497 -1.91605,16.5879 0.24901,24.5502 2.73738,10.0412 7.57955,19.3688 13.02528,28.1865 8.77461,14.0628 19.33319,26.9246 30.4868,39.1533 12.86903,14.0043 26.64786,27.1573 40.99404,39.6374 26.95686,23.2836 56.60546,43.3854 87.89029,60.3847 28.9017,15.657 59.25823,28.7163 90.71629,38.2973 23.57827,7.1308 47.82169,12.3539 72.41286,14.2455 18.67005,1.3965 37.62765,0.8723 55.94839,-3.2372 10.21646,-2.3432 20.26867,-5.7459 29.43167,-10.8906 7.2195,-4.0957 13.8418,-9.6826 17.8957,-17.0299 3.7028,-6.5838 5.0081,-14.3797 4.0379,-21.8431 -1.212,-9.6493 -5.5865,-18.5689 -10.7253,-26.705 -3.2413,-5.1551 -6.9156,-10.0391 -10.9918,-14.5631 -3.9182,-4.3337 -8.8359,-8.0151 -14.59622,-9.4015 -5.83289,-1.5072 -12.05585,-0.4993 -17.51875,1.8668 -6.58923,2.8454 -12.48277,7.0193 -18.33453,11.1193 -9.09004,6.4037 -17.79139,13.5595 -27.95453,18.244 -5.80257,2.6917 -12.15845,4.0636 -18.53739,4.3038 -9.33847,0.3629 -18.65296,-0.7644 -27.8929,-1.9914 -18.45006,-2.673 -36.40094,-8.1027 -53.75134,-14.8321 -3.69938,-1.4393 -7.36986,-2.952 -11.01759,-4.5174 -0.0851,-0.034 -1.05328,-0.457 -1.46363,-0.6341 -8.70454,-3.7906 -17.25886,-7.9234 -25.66137,-12.3425 -0.20801,-0.1062 -1.05994,-0.561 -1.51632,-0.8017 -9.92245,-5.2637 -20.03346,-11.2069 -29.2377,-17.0942 -13.82685,-8.8582 -27.16208,-18.498 -39.77918,-29.0123 -0.16716,-0.1463 -0.91829,-0.7709 -1.31092,-1.1018 -13.37962,-11.311 -26.04317,-23.5869 -36.81843,-37.4369 -6.40247,-8.3307 -12.23506,-17.2529 -15.97807,-27.1195 -1.32653,-3.445 -2.18128,-7.0442 -2.82424,-10.6727 -1.84878,-8.9261 -4.5956,-17.8607 -9.71241,-25.4949 -4.2186,-6.379 -10.38442,-11.5763 -17.66452,-14.0687 -3.83741,-1.3448 -7.90991,-1.9546 -11.97071,-1.9414 z"
       style="fill:#1d5184;fill-opacity:1"
       transform="translate(0,-2.5000001e-5)" />
    <path
       id="path1-73"
       d="m 567.93164,3435.502 c -3.31286,0.172 -6.51313,1.4844 -9.16621,3.4502 -4.47309,3.3746 -7.41154,8.2826 -10.14238,13.0751 -5.12333,9.3584 -9.29769,19.1988 -13.27101,29.0889 -5.78693,14.6258 -10.97436,29.5028 -15.18978,44.6605 -2.16253,8.0148 -4.18622,16.1204 -4.95939,24.4051 -0.36613,3.7239 -0.27982,7.5233 0.70906,11.1518 1.77442,6.7616 5.30118,12.9001 9.08561,18.719 6.76733,10.2514 14.68695,19.6828 22.83894,28.8503 15.26318,17.0037 31.66307,32.9583 48.62446,48.2573 18.20477,16.3342 37.10124,31.9313 56.9936,46.1753 11.94908,8.526 24.28823,16.5554 37.31679,23.3431 27.22245,14.5096 55.78839,26.4612 85.11736,36.0001 25.26104,8.1781 51.12555,14.6206 77.40839,18.4861 18.21868,2.6189 36.68859,4.0883 55.0901,2.9318 12.07959,-0.8216 24.24414,-2.7498 35.48977,-7.3993 8.14561,-3.3744 15.76209,-8.4405 21.17364,-15.4882 5.27305,-6.8039 9.6096,-14.2677 13.90484,-21.7096 8.17414,-14.492 15.69474,-29.3528 22.58347,-44.4975 3.3708,-7.5403 6.6955,-15.1279 9.2143,-23.0031 1.4299,-4.6065 2.5935,-9.5703 1.4124,-14.3641 -0.3972,-1.7658 -1.145,-3.4426 -2.0701,-4.9881 -0.8696,-1.1359 -1.6317,-2.3706 -2.8045,-3.2268 -0.7642,-0.7229 -1.5597,-1.3986 -2.5164,-1.8498 -0.986,-0.5406 -1.9598,-1.1459 -3.0716,-1.3984 -3.72707,-1.2135 -7.68891,-1.3023 -11.56084,-1.6617 -15.76722,-1.0752 -31.55419,-1.8362 -47.32258,-2.8955 -9.66761,-0.5267 -19.31031,-1.4805 -28.89239,-2.8687 -25.28939,-3.6695 -50.19739,-9.6848 -74.63312,-17.1136 -27.64412,-8.4537 -54.73974,-18.7683 -80.84172,-31.2063 -17.87434,-8.5577 -35.30344,-18.1416 -51.60161,-29.4435 -20.86561,-14.1888 -41.73027,-28.379 -62.59683,-42.5664 -10.43386,20.8411 -20.82843,41.702 -31.28442,62.5318 -4.33021,8.3579 -8.56019,16.7879 -13.53612,24.7872 -0.28713,0.9582 -0.72736,0.3156 -1.15331,-0.1776 -3.60891,-3.6241 -7.44724,-7.141 -10.1133,-11.558 -1.5132,-2.4078 -2.17184,-5.2945 -1.90018,-8.1215 0.47051,-5.3877 2.37873,-10.5152 4.32844,-15.5166 5.44053,-13.5122 12.6046,-26.2259 18.78555,-39.3961 3.52471,-7.5925 7.01918,-15.3257 8.6107,-23.5932 1.36028,-6.8707 0.93129,-14.1119 -1.48076,-20.704 -2.97341,-8.3246 -8.39655,-15.4244 -13.458,-22.5627 -5.28508,-7.3306 -11.07648,-14.339 -17.68142,-20.5233 -3.66468,-3.3419 -7.74866,-6.5794 -12.68413,-7.7132 -1.18489,-0.3151 -2.43752,-0.3534 -3.65402,-0.4462 -0.3671,0.026 -0.7342,0.053 -1.1013,0.079 z"
       style="fill:#1d5184;fill-opacity:1"
       transform="translate(0,-2.5000001e-5)" />
    <path
       id="path1-61"
       d="m 776.66797,3259.7871 c -5.76184,0.148 -11.18484,2.8375 -15.48523,6.556 -5.96163,5.1677 -10.37898,11.8252 -14.36633,18.5651 -6.68604,11.5725 -12.04292,23.8556 -16.959,36.2662 -5.51667,14.0096 -10.39769,28.2652 -14.86025,42.6428 -2.6053,9.678 -5.41501,19.3401 -6.92099,29.2668 -1.1495,7.6678 -1.11524,15.6654 1.35078,23.085 2.56424,7.9965 7.65154,14.8659 13.13164,21.1083 4.48149,5.0268 9.09022,9.9493 13.9558,14.6075 12.65088,11.9498 26.89041,22.1021 41.67838,31.2251 20.7043,12.6896 42.63356,23.3523 65.28462,32.0889 19.46266,7.4474 39.51497,13.5238 60.06698,17.0981 3.22807,0.5414 6.46892,1.0816 9.71782,1.4399 1.49508,-0.074 2.99581,-0.1043 4.44075,-0.5385 4.37787,-1.0539 8.03696,-3.9953 10.9097,-7.3651 4.32086,-5.0642 7.75356,-10.8048 11.11849,-16.527 7.6088,-13.2235 14.31032,-26.9496 20.59866,-40.8431 6.77523,-15.62 13.62634,-31.2241 19.47685,-47.2209 3.40903,-9.5774 6.59984,-19.3455 7.75965,-29.4882 0.8877,-7.757 0.22098,-15.8912 -3.22153,-22.9932 -3.23491,-6.8368 -8.89137,-12.2927 -15.36734,-16.0795 -7.91255,-4.671 -16.74525,-7.4575 -25.51879,-10.0157 -5.07825,-1.4852 -10.21386,-2.7576 -15.33238,-4.0925 -8.57707,-2.3235 -17.03325,-5.074 -25.40945,-8.036 -0.21186,-0.08 -1.12882,-0.4044 -1.61281,-0.5789 -11.98702,-4.3379 -23.8576,-9.0368 -35.38627,-14.4872 -10.66682,-5.2596 -21.27995,-10.6287 -31.92564,-15.9314 -4.79461,-2.3973 -9.58925,-4.7946 -14.38388,-7.1919 -11.36468,24.3823 -22.6891,48.7837 -34.0739,73.1565 -5.30978,11.0834 -10.95479,22.0303 -17.50422,32.4392 2.90251,-14.1569 7.26206,-27.9706 12.08672,-41.5777 2.0061,-5.583 4.05241,-11.1544 6.36164,-16.6201 4.90008,-12.1713 9.17681,-24.6644 11.63367,-37.5776 1.33625,-7.4557 2.17582,-15.162 0.83203,-22.6797 -0.99454,-5.5777 -3.5948,-11.0199 -8.00345,-14.691 -3.8705,-3.3339 -8.95488,-5.1991 -14.07272,-5.0102 z"
       style="fill:#f0b022;fill-opacity:1"
       transform="translate(0,-2.5000001e-5)" />
    <path
       id="path1-3"
       style="fill:#fdd6b7;fill-opacity:1"
       d="m 1897.0938,885.37305 c -72.9018,0.43899 -145.7607,6.72043 -217.6846,18.61208 -68.0827,11.27721 -135.3618,27.57567 -200.8799,49.28245 -57.3768,19.05955 -113.4429,42.26624 -166.9281,70.50602 -41.3489,21.878 -81.1751,46.7772 -118.1657,75.4549 -34.303,26.6468 -66.2256,56.5848 -93.4688,90.4823 -9.3166,11.7822 -18.4028,23.7491 -27.1945,35.9284 -10.4572,14.587 -20.5313,29.5046 -29.0544,45.3196 -6.3007,11.7947 -11.8081,24.1784 -14.5687,37.3204 -2.1483,10.1747 -2.3634,20.8601 0.2337,30.9749 0.5262,2.1534 1.0397,4.3113 1.4414,6.492 -9.5441,-3.3824 -18.5502,-8.058 -27.6474,-12.4596 -12.29252,-5.8212 -25.04048,-10.9928 -38.45774,-13.5244 -10.40529,-1.9672 -21.28195,-2.0774 -31.55695,0.6852 -10.43175,2.7412 -19.93644,8.3797 -27.95494,15.5218 -10.58696,9.4102 -18.95684,20.9978 -26.45912,32.9352 -5.03064,8.0288 -9.56019,16.3545 -14.13799,24.6454 -11.24242,20.7301 -21.38779,42.0356 -31.08622,63.5251 -11.50171,25.6189 -22.32508,51.551 -32.11373,77.8747 -4.95106,13.4897 -9.74347,27.063 -13.44412,40.9571 -1.54452,6.1249 -3.06344,12.3473 -3.09393,18.6996 0.0287,5.719 2.16714,11.36 5.81544,15.7493 -4.69482,1.7173 -8.37407,5.4802 -10.77809,9.7829 -2.60602,4.623 -4.26342,9.6923 -6.05819,14.6641 -2.61277,8.2024 -4.05386,16.7215 -5.28386,25.2243 -1.75392,12.66 -2.6823,25.4358 -2.7214,38.2174 -0.1614,8.7677 -0.48915,17.5726 0.44526,26.3102 0.74923,6.9291 2.69067,13.897 6.77827,19.6305 3.98472,5.6968 9.83302,9.8208 16.09151,12.6949 7.73801,3.5526 15.97403,5.8275 24.12955,8.1942 6.48215,1.9078 13.00836,3.6918 19.64708,4.9732 17.26095,3.4279 35.15987,4.0758 52.52888,1.0375 17.31254,-2.9643 33.90696,-9.5844 48.83372,-18.7909 19.03456,-11.6928 35.42851,-27.2377 49.83799,-44.2091 8.55657,-10.3178 17.13858,-20.6155 25.83638,-30.8152 0.2515,-0.288 0.781,-0.912 1.1389,-1.3286 13.5818,-15.8588 27.3375,-31.5941 41.9992,-46.4706 8.4376,-8.482 17.1423,-16.7722 26.8123,-23.8509 5.4246,-3.8777 11.1848,-7.5368 17.6531,-9.3772 3.9719,-1.1461 8.3056,-1.1253 12.1856,0.3672 5.8039,2.1888 10.6915,6.182 15.2514,10.2864 4.9059,4.4532 9.6027,9.3044 12.7738,15.1808 4.3709,7.8722 5.7748,17.0113 5.8244,25.9136 0.049,11.7811 -1.8683,23.468 -4.2542,34.972 -0.4174,1.9811 -0.8549,3.9578 -1.3025,5.9323 -0.011,0.024 -0.2603,1.1123 -0.361,1.5364 -3.9153,16.7384 -8.9226,33.1937 -14.0437,49.5948 -5.4228,17.7362 -10.5766,35.5941 -14.1172,53.815 -3.1492,16.2921 -4.8325,33.0136 -3.1539,49.5803 1.3554,13.8916 5.1767,27.471 10.6731,40.2772 6.8343,15.963 15.8975,30.8494 25.4179,45.3295 5.2407,8.0111 10.8371,15.7829 16.0063,23.8415 19.2076,29.5584 35.9024,60.956 47.3327,94.3732 8.5909,24.9529 14.0902,50.9612 16.3791,77.251 1.6501,18.61 1.7193,37.3376 0.661,55.9835 -1.307,29.1803 -2.6119,58.3606 -3.9212,87.5407 22.4066,-6.96 44.8009,-13.9605 67.2154,-20.8947 19.9491,-5.9384 40.8397,-8.1509 61.6005,-8.2662 26.9185,-0.1 53.7574,3.3185 80.0826,8.7885 30.5591,6.3869 60.4856,15.6095 89.6132,26.8079 0.092,0.031 1.0706,0.4162 1.4886,0.5775 40.3026,15.6597 79.1105,35.1274 115.9023,57.8304 11.3737,7.0198 22.5426,14.3703 33.4997,22.0238 0.083,0.065 0.9393,0.6621 1.306,0.9222 30.4566,21.4125 59.2192,45.3049 85.3369,71.8589 21.0762,21.0321 42.0635,42.1545 63.3273,62.9975 3.5903,3.4361 7.0746,6.9973 10.8887,10.1887 1.9866,1.4846 4.1148,2.7773 6.1568,4.187 2.8245,-0.4435 5.6779,-0.7999 8.4846,-1.2972 1.3616,-0.7829 2.8338,-1.4082 4.1268,-2.2886 1.1593,-1.0911 2.4827,-2.035 3.3085,-3.426 2.2223,-2.9375 3.1555,-6.65 3.3233,-10.2842 0.2426,-5.7148 -0.3863,-11.4211 -0.9388,-17.1013 -1.0881,-10.3701 -2.6283,-20.685 -4.1433,-30.9989 -2.2143,-16.4555 -6.0997,-32.6732 -11.4533,-48.3873 -7.9233,-23.2782 -18.5031,-45.5384 -29.5973,-67.4459 -11.9085,-23.397 -24.5941,-46.3863 -37.3427,-69.3327 -4.4722,-8.2403 -9.0787,-16.4371 -12.7492,-25.0767 -1.4429,-3.6606 -2.9672,-7.4972 -2.7179,-11.5058 0.4096,-4.0583 2.3551,-7.7392 4.1319,-11.3412 3.2927,-6.3669 6.9104,-12.6084 11.4624,-18.1693 8.4711,-10.5684 19.5878,-18.8151 31.7154,-24.7388 15.0156,-7.3734 31.3779,-11.5784 47.8277,-14.2639 20.7287,-3.3056 41.7694,-4.2104 62.7355,-3.9906 49.8109,0.665 99.3214,9.7585 146.6877,24.9843 49.6942,16.0358 97.1734,38.8225 140.9866,67.2099 41.5619,26.959 79.9069,59.0187 113.0813,95.8487 18.7535,20.8572 35.8532,43.2394 50.6226,67.0955 8.6191,14.0907 17.6288,27.9657 27.5536,41.1779 4.2701,5.5629 8.6027,11.1465 13.8069,15.879 3.0831,2.756 6.7826,5.0171 10.9325,5.6224 1.1439,0.1765 2.3279,0.2012 3.4816,0.1724 1.2688,-0.2187 2.5881,-0.2718 3.8257,-0.5921 2.4942,-1.1533 4.9194,-2.4698 7.0926,-4.1642 5.5522,-4.2695 10.5493,-9.202 15.5392,-14.1017 12.9753,-12.933 25.3969,-26.4067 37.7393,-39.9405 25.4094,-27.9963 50.2448,-56.5108 74.6553,-85.3811 17.0717,-20.2731 34.0095,-40.6694 50.2187,-61.6424 6.064,-7.9295 12.1255,-15.8831 17.5144,-24.2937 2.1783,-3.3662 4.0981,-6.909 5.4863,-10.6774 5.7897,-14.7907 9.3981,-30.3349 12.1343,-45.95 4.1756,-24.3592 6.1104,-49.0503 6.9843,-73.7323 1.2282,-36.5672 0,-73.1872 -2.7863,-109.6582 -2.1999,-28.6331 -5.4565,-57.1807 -9.5759,-85.5998 -0.5947,-4.2776 -1.1741,-8.5572 -1.754,-12.8369 -0.048,-0.3902 -0.157,-1.1903 -0.2284,-1.7375 -0.2281,-1.7158 -0.4805,-3.6417 -0.6934,-5.2273 -3.9347,-30.2348 -7.4372,-60.5538 -9.1123,-91.0084 -0.071,-1.3761 -0.1426,-2.7522 -0.2139,-4.1283 -0.01,-0.066 -0.051,-1.1449 -0.071,-1.587 -1.3448,-29.2555 -0.6931,-58.7575 4.4914,-87.6439 3.806,-21.6408 10.1895,-42.7664 18.1601,-63.2221 4.5258,-11.6733 9.5679,-23.1381 14.8033,-34.5081 7.0799,-16.1356 14.1649,-32.2931 20.0677,-48.9054 5.0581,-14.1981 8.9426,-28.8377 11.1299,-43.7604 2.9134,-19.5251 3.4359,-39.3032 3.6943,-59.012 0.1503,-16.4499 0.1481,-32.9029 -0.1481,-49.3512 -0.4063,-18.7424 -1.1638,-37.5769 -4.6535,-56.0392 -2.6365,-14.1711 -7.185,-27.9322 -12.9064,-41.1448 -4.9204,-11.3888 -10.4593,-22.4995 -16.1689,-33.5099 -21.9688,-41.8055 -51.4129,-79.34 -84.5692,-112.8302 -33.1014,-33.4066 -69.9464,-62.9446 -108.6838,-89.544 -49.0193,-33.6031 -101.1126,-62.5498 -154.6806,-88.2133 -23.9565,-11.43851 -48.1885,-22.30967 -72.7618,-32.3593 -42.276,-17.36299 -85.5301,-32.57645 -129.9584,-43.43938 -32.9573,-8.10825 -66.5018,-13.76377 -100.2607,-17.22015 -39.1522,-4.02688 -78.5487,-5.2388 -117.8901,-5.04562 z M 941.63086,1478.3594 c -2.54293,4.7023 -5.26333,9.3043 -7.88376,13.9628 -4.48462,8.2263 -8.55489,16.8252 -10.52249,26.0372 -1.35622,6.5095 -1.41496,13.509 1.18906,19.7261 2.22843,5.4778 6.54788,10.0284 11.85147,12.6271 6.39063,3.1687 13.75953,3.6126 20.74853,2.8304 3.84514,-0.4282 7.64527,-1.2008 11.38867,-2.17 -5.73623,10.6809 -12.55573,20.7488 -19.857,30.4149 -7.77228,10.1692 -16.11127,19.9653 -25.55497,28.6295 -5.1797,4.7859 -11.13926,8.6585 -17.31565,12.0276 -13.45546,7.1817 -28.36807,11.657 -43.56552,12.9885 -9.39617,0.7537 -19.03499,0.3694 -28.08296,-2.4664 -5.21795,-1.6745 -10.36271,-4.2731 -13.92077,-8.555 12.41219,1.8455 25.11622,1.3361 37.44194,-0.9037 11.36623,-2.142 22.60313,-5.8313 32.37658,-12.1267 3.70716,-2.4506 7.20617,-5.2165 10.52718,-8.1669 4.38294,-3.932 8.10308,-8.8369 9.69482,-14.5781 1.72999,-5.9721 1.01827,-12.3851 -0.91474,-18.2161 -2.45371,-7.4339 -6.1629,-14.3631 -9.70557,-21.3178 -2.49354,-4.7127 -4.80147,-9.5236 -6.88701,-14.4309 0.0152,0.022 -0.42599,-1.0133 -0.58398,-1.3926 -2.76041,-6.7637 -5.32141,-13.661 -6.7855,-20.8355 -0.41524,-1.9466 -0.5756,-3.9837 2.8e-4,-5.9175 1.35454,-4.9952 4.32773,-9.4319 7.89317,-13.127 1.14572,-1.1603 2.37722,-2.244 3.73189,-3.1552 4.39297,2.1111 9.48554,2.1784 14.17303,1.14 6.76237,-1.4871 13.08992,-4.4586 19.17042,-7.6993 4.38435,-2.3704 8.62781,-4.9977 12.73663,-7.8176 -0.44792,0.8307 -0.89583,1.6614 -1.34375,2.4922 z" />
    <path
       id="path1-6"
       style="fill:#fdd6b7;fill-opacity:1"
       d="m 2759.7227,1545.4727 c -1.5379,0.069 -3.0429,0.4849 -4.4758,1.0254 -4.5768,1.7131 -7.9999,5.4547 -10.745,9.3659 -4.2658,6.1346 -7.7347,12.7766 -11.1214,19.4236 -7.2963,14.5012 -13.8442,29.369 -20.0088,44.3828 -5.0574,12.423 -9.8946,24.9519 -13.9177,37.7528 -1.7986,5.933 -3.5832,11.9299 -4.2262,18.1178 -0.5254,4.4131 0.3331,8.8869 1.9899,12.9807 2.8069,6.9707 7.1012,13.2211 11.6354,19.169 6.3057,8.1525 13.4277,15.6562 21.0987,22.5334 3.8236,3.6277 7.6901,7.2973 10.696,11.6547 0.5707,0.4019 -0.031,0.7929 -0.483,0.5812 -3.2268,-0.6148 -6.1196,-2.3083 -8.9216,-3.9491 -2.6141,-1.5331 -5.0319,-3.3684 -7.5573,-5.0334 -16.2019,-9.9704 -32.4038,-19.9408 -48.6058,-29.9111 0.011,22.8698 -0.022,45.7397 0.016,68.6093 0.1754,13.3577 1.1542,26.7139 3.0899,39.9339 0.9268,5.9715 1.9327,11.9781 3.8991,17.7086 2.9056,7.5141 7.8706,14.3465 14.6138,18.8478 6.9651,4.7357 15.5745,6.7426 23.9343,6.1908 10.6125,-0.6652 20.7022,-4.9454 29.4903,-10.7653 8.0721,-5.3414 15.1717,-12.0473 21.427,-19.4099 11.3223,-13.0082 21.7329,-27.0282 29.0133,-42.7354 6.3232,-13.465 10.123,-28.0071 12.1009,-42.7202 2.0511,-15.1679 2.4845,-30.504 2.3894,-45.7931 -0.3178,-17.3008 -2.5778,-34.5119 -5.7106,-51.511 -3.413,-18.0816 -7.8507,-35.9978 -13.8422,-53.4056 -3.222,-9.1566 -6.7924,-18.259 -11.7305,-26.6442 -3.2788,-5.4685 -7.3295,-10.7921 -13.0147,-13.9218 -3.3461,-1.8235 -7.2195,-2.8089 -11.0337,-2.4776 z" />
    <path
       id="path1-62"
       style="display:inline;fill:#2173bd;fill-opacity:1"
       d="m 1822.0918,694.38672 c -58.167,0.33455 -116.3149,3.54583 -174.1729,9.53684 -61.0636,6.33363 -121.807,15.74957 -181.9294,28.16285 -121.7893,25.15924 -241.072,62.60963 -355.1702,112.11117 -35.7545,15.50929 -70.9781,32.23683 -105.6295,50.07368 -63.09356,32.4396 -124.24122,68.85198 -181.70906,110.50744 -48.80614,35.3432 -94.87191,74.4932 -137.40415,117.188 -43.69941,43.8126 -83.66616,91.2797 -120.18266,141.2171 -21.52479,29.398 -41.85703,59.6578 -61.27972,90.4816 -15.79122,24.6155 -31.58386,49.2301 -47.37398,73.8463 19.11448,15.8574 38.26852,31.6676 57.34779,47.567 16.92901,14.603 30.32769,32.8987 41.0746,52.4075 3.84588,6.9982 7.36864,14.1716 10.61863,21.465 0.007,0.031 0.45926,1.0465 0.63338,1.4468 2.56374,5.8302 4.9374,11.7426 7.16349,17.7094 0.0236,0.08 0.39571,1.0771 0.54802,1.4958 2.50114,6.7804 4.92402,14.0907 6.94972,20.721 8.98129,29.4149 14.8976,59.6924 18.97994,90.1519 0.85237,6.4229 1.62278,12.8562 2.32311,19.2973 0.004,0.012 0.11751,1.1349 0.16284,1.5661 1.27579,12.0991 2.27978,24.2263 3.05591,36.3675 0.0147,0.3019 0.0732,1.1982 0.10472,1.7283 0.28524,4.5919 0.53025,9.1862 0.7527,13.7815 0.0164,0.311 0.0543,1.1993 0.079,1.7318 0.19348,4.402 0.37413,8.8834 0.52058,13.2091 0.0587,1.7187 0.10258,3.4379 0.15633,5.1568 0.014,0.4263 0.0336,1.223 0.0491,1.7933 0.91451,35.2971 0.16107,70.6254 -1.78972,105.8763 -0.0858,1.4877 -0.17165,2.9754 -0.25747,4.4632 -0.0157,0.1873 -0.0721,1.1316 -0.10351,1.6113 -0.19509,3.041 -0.39793,6.0815 -0.61329,9.1211 -0.0209,0.3181 -0.0879,1.1973 -0.12651,1.7307 -0.396,5.4597 -0.8424,10.9157 -1.32075,16.3689 -0.0337,0.3262 -0.10909,1.1956 -0.15878,1.7301 -0.76207,8.4622 -1.62897,16.9149 -2.59903,25.3558 -0.0412,0.3163 -0.14062,1.1923 -0.20414,1.7233 -1.50778,12.9376 -3.27794,25.8446 -5.29782,38.7123 -0.0494,0.2878 -0.18974,1.1852 -0.27407,1.7071 -0.6176,3.905 -1.26977,7.8043 -1.93687,11.7011 -0.0578,0.3115 -0.20665,1.1826 -0.29936,1.7088 -1.71011,9.8433 -3.58903,19.6575 -5.62056,29.4396 -0.0615,0.2744 -0.24799,1.1743 -0.35753,1.6891 -1.31059,6.2614 -2.71259,12.5035 -4.16786,18.7328 -0.0807,0.3539 -0.27565,1.1687 -0.40011,1.6991 -0.14918,0.6315 -0.29836,1.2631 -0.44754,1.8946 -0.0695,0.2708 -0.2819,1.1666 -0.40633,1.6776 -1.01142,4.2056 -2.06101,8.4019 -3.1425,12.59 -0.0775,0.3084 -0.30276,1.1618 -0.43694,1.6792 -1.08701,4.1868 -2.21911,8.3617 -3.37556,12.5298 -0.064,0.2388 -0.32489,1.1547 -0.46474,1.6544 -8.37373,29.7102 -18.53551,58.9561 -31.19151,87.1249 -0.12569,0.2682 -0.49547,1.0933 -0.71489,1.5754 -8.92438,19.6014 -19.07395,38.6874 -31.0119,56.6296 -10.54482,15.7753 -22.46907,30.7451 -36.49174,43.5816 -11.74126,10.6755 -25.07283,19.9453 -40.09907,25.3236 -4.80839,1.7501 -9.79331,2.9665 -14.83254,3.83 -8.3872,1.5656 -16.82675,3.8228 -24.11744,8.4036 -8.93535,5.4805 -15.64933,14.415 -18.48396,24.5014 -2.64177,9.1085 -2.3618,18.7747 -0.96698,28.07 1.92126,12.588 5.39948,24.8678 8.96294,37.0713 6.75639,22.8047 14.27887,45.3718 21.6391,67.9858 4.9749,15.2749 10.21609,30.464 15.85086,45.5086 41.9198,112.342 102.36206,217.4555 176.02567,311.9471 67.73103,86.8745 146.63518,164.9264 233.56621,232.5382 78.65254,61.1552 163.91292,113.8013 253.80715,156.7558 37.6969,18.0084 76.2097,34.3057 115.3763,48.8425 18.1216,6.7506 36.2088,13.6232 54.5935,19.6349 10.4987,3.3671 21.1494,6.5543 32.1427,7.787 8.7154,0.9502 17.7896,0.2498 25.8865,-3.3062 9.4356,-4.0466 17.0837,-11.9218 21.0575,-21.3677 3.4626,-7.972 4.4781,-16.7338 4.7451,-25.3469 0.2558,-6.6138 -0.1423,-13.2719 0.8628,-19.8399 1.9661,-14.5579 7.6595,-28.3799 15.018,-41.0079 10.2881,-17.5855 23.7554,-33.1099 38.4201,-47.1714 6.8386,-6.5315 13.9737,-12.7495 21.3285,-18.6925 0.079,-0.068 0.8963,-0.7192 1.2462,-1.0011 19.8476,-15.8537 41.1792,-29.7866 63.2737,-42.2927 29.9218,-16.9007 61.2781,-31.1881 93.376,-43.4276 15.0758,-5.7378 30.3289,-11.0068 45.7155,-15.8489 0.3252,-0.097 1.1461,-0.3577 1.6613,-0.5176 36.4661,-11.3932 73.6814,-20.353 111.294,-27.0335 2.0988,-0.3798 4.2018,-0.7373 6.3025,-1.1071 0.2941,-0.045 1.1835,-0.2004 1.7062,-0.2878 1.0913,-0.1861 2.5379,-0.4298 3.4081,-0.5801 7.1055,-1.1866 14.2214,-2.3113 21.3486,-3.3606 0.3141,-0.049 1.188,-0.173 1.7168,-0.2508 0.9043,-0.1312 1.8086,-0.2625 2.7129,-0.3938 0.3388,-0.044 1.1889,-0.1672 1.7237,-0.2417 24.2223,-3.4322 48.5595,-6.0408 72.952,-7.9047 0.312,-0.02 1.1518,-0.086 1.666,-0.1231 0.4449,-0.035 1.264,-0.091 1.8522,-0.134 21.9503,-1.6025 43.9467,-2.5658 65.9525,-2.9129 0.237,-0.01 1.1993,-0.015 1.7159,-0.023 1.4827,-0.019 2.9655,-0.037 4.4482,-0.056 0.2782,0 1.2001,-0.01 1.7257,-0.012 7.6473,-0.07 15.2952,-0.051 22.9423,0.033 0.2883,0 1.1542,0.015 1.664,0.022 1.1765,0.016 2.3529,0.033 3.5293,0.049 0.2296,0.01 1.1521,0.023 1.6485,0.033 10.3691,0.1884 20.9052,0.5226 31.3301,1.0107 0.9902,0.047 1.9804,0.093 2.9706,0.1397 0.2776,0.019 1.1985,0.063 1.7234,0.092 25.1563,1.2831 50.2926,3.4653 75.3011,6.654 2.7708,0.3413 5.3992,0.712 8.1825,1.0819 21.2075,2.9137 42.3155,6.5836 63.2286,11.1608 0.3232,0.076 1.172,0.2605 1.6967,0.3781 1.5734,0.3443 3.5167,0.7929 4.8519,1.0917 29.4475,6.796 58.5416,15.4158 86.4698,27.0269 18.6563,7.8133 36.8187,16.9908 53.5476,28.4055 7.6254,5.1673 14.7445,11.0603 21.3423,17.4841 11.2631,10.9767 21.2289,23.2689 29.8166,36.4387 6.0874,9.4387 11.5105,19.3769 15.3472,29.9549 1.6931,4.8698 3.1552,9.9362 3.1243,15.1356 0.058,9.659 1.3064,19.4965 5.2708,28.3869 3.3008,7.4637 8.6339,14.0687 15.4721,18.5659 7.2222,4.8894 15.9834,7.2232 24.6623,7.243 10.5169,0.061 20.7588,-2.9735 30.467,-6.7804 10.3909,-4.1488 20.3543,-9.2851 30.1693,-14.6351 11.9106,-6.5628 23.5875,-13.5379 35.272,-20.4918 87.1084,-52.339 167.5202,-115.6328 239.7178,-187.1048 89.7149,-88.8261 166.8202,-190.2602 229.1805,-300.0016 35.9644,-63.3132 67.0301,-129.4124 92.753,-197.534 11.8748,-31.4365 22.5796,-63.3121 32.1635,-95.5204 17.1609,-57.4822 31.0273,-115.9541 41.3368,-175.0532 14.1439,-81.0858 21.5863,-163.3652 21.7151,-245.6841 0.1977,-105.0466 -11.5292,-210.1766 -35.8143,-312.4027 -18.1621,-76.5406 -43.3605,-151.4308 -75.5036,-223.2384 -23.615,-52.7801 -50.9686,-103.8926 -81.8915,-152.7538 -31.7855,-50.2459 -67.3468,-98.1055 -106.3216,-143.0058 -35.5187,-40.9331 -73.8788,-79.4003 -114.7034,-115.0434 -46.3854,-40.51131 -95.9481,-77.37477 -148.0244,-110.24735 -33.2303,-21.02208 -67.5523,-40.31606 -102.7821,-57.78172 -97.5399,-48.38949 -201.5437,-83.19346 -307.8676,-106.27734 -77.4692,-16.81423 -156.2496,-27.42158 -235.3519,-32.44021 -39.1714,-2.47715 -78.426,-3.58715 -117.6748,-3.37886 z m 42.8223,155.57812 c 7.0554,0.0122 14.1109,0.0452 21.166,0.11914 1.206,0.0123 2.6665,0.0347 3.9703,0.0509 6.2247,0.0771 12.4486,0.20072 18.6723,0.33581 0.3366,0.0121 1.2002,0.0308 1.7388,0.0453 1.9321,0.0487 3.8642,0.0974 5.7963,0.14606 0.2486,0.004 1.1576,0.0346 1.6602,0.0488 9.8752,0.28483 19.7478,0.65702 29.6172,1.09961 0.325,0.0126 1.1609,0.0543 1.6816,0.0781 0.8881,0.0477 2.0643,0.10248 3.063,0.1529 4.5359,0.21254 9.4962,0.49063 13.7634,0.72028 5.3389,0.31616 10.6771,0.64531 16.0134,1.00377 0.3183,0.019 1.1977,0.0832 1.7312,0.1195 8.193,0.55857 16.3809,1.1883 24.5638,1.87855 0.3372,0.0268 1.1518,0.1 1.6718,0.14453 13.1843,1.12765 26.3519,2.44747 39.5,3.93946 0.3247,0.041 1.1926,0.13897 1.7255,0.2018 9.9436,1.14523 19.8744,2.39948 29.7902,3.76499 0.2721,0.0352 1.1884,0.16656 1.7082,0.23875 12.5204,1.73842 25.0134,3.67172 37.4773,5.77688 0.2536,0.0477 1.1823,0.20423 1.6958,0.29383 19.4988,3.33131 38.9175,7.13468 58.2261,11.43468 34.6766,7.72659 69.1302,17.09924 102.9411,28.18167 0.4857,0.15794 1.325,0.43408 1.5718,0.51198 48.2244,15.88584 95.2894,35.28904 140.6961,58.00948 0.2633,0.12842 1.0724,0.5391 1.5454,0.77594 1.0747,0.54083 2.1494,1.08166 3.2241,1.6225 0.2487,0.13265 1.0691,0.5453 1.5376,0.78557 9.0008,4.56958 17.9316,9.27644 26.8003,14.09724 0.2618,0.13852 1.0533,0.57564 1.5185,0.82883 1.0551,0.57724 2.1101,1.15448 3.1651,1.73172 0.2474,0.14271 1.0498,0.58181 1.5104,0.83841 1.0525,0.58251 2.105,1.16502 3.1576,1.74752 0.2506,0.13534 1.0475,0.58572 1.5081,0.84212 1.05,0.58779 2.1,1.17557 3.1501,1.76335 0.2527,0.14815 1.0443,0.59177 1.504,0.8534 38.9742,22.03069 76.636,46.37099 112.85,72.68939 8.046,5.8581 16.0103,11.8277 23.8999,17.8947 0.2103,0.1581 0.9493,0.7338 1.3631,1.0526 1.142,0.8835 2.2839,1.767 3.4259,2.6505 0.1884,0.1546 0.9443,0.7398 1.3513,1.0603 7.4985,5.8489 14.9147,11.8027 22.262,17.8401 0.186,0.1598 0.9238,0.7652 1.3224,1.0967 5.7398,4.7319 11.7833,9.8361 17.1985,14.4942 21.3789,18.4065 42.0421,37.6452 61.8912,57.6923 0.1484,0.1442 0.841,0.854 1.1998,1.2169 27.5828,27.9471 53.5748,57.4648 77.7651,88.3964 0.111,0.1516 0.7342,0.9466 1.0436,1.3473 2.0659,2.643 4.3621,5.6451 6.2453,8.0937 22.3908,29.3506 43.1506,59.9447 62.1505,91.5961 0.1023,0.1639 0.6138,1.029 0.8745,1.4643 21.8859,36.5835 41.389,74.5864 58.44,113.6568 0.065,0.1629 0.4746,1.0994 0.6733,1.5624 26.488,61.0056 46.9204,124.605 61.4218,189.5021 1.5199,6.8546 2.9937,13.7197 4.4049,20.5976 0.063,0.3326 0.2375,1.177 0.3432,1.7057 0.1786,0.8826 0.3571,1.7652 0.5357,2.6478 0.046,0.2182 0.2314,1.1765 0.3311,1.6804 5.0124,24.8773 7.9043,50.1314 9.8786,75.4158 0.2253,2.9411 0.4392,5.8831 0.6438,8.8257 0.02,0.2688 0.079,1.1974 0.1141,1.72 0.2154,3.1566 0.4019,6.315 0.589,9.4734 0.011,0.2606 0.065,1.198 0.093,1.7192 0.181,3.1603 0.3329,6.3222 0.4875,9.4839 0.015,0.2861 0.053,1.199 0.077,1.726 0.4182,9.2071 0.7241,18.4191 0.9303,27.6334 0.01,0.2857 0.024,1.149 0.035,1.6562 0.054,2.954 0.1164,6.0778 0.1575,9.0972 0.012,0.7027 0.016,1.0592 0.022,1.6946 0.1293,10.4607 0.146,20.923 0.039,31.384 -0.018,1.6897 -0.046,3.5998 -0.068,5.3742 -0.01,0.7073 -0.018,1.4146 -0.028,2.1219 -0.01,0.2616 -0.022,1.1996 -0.033,1.7216 -0.1554,9.3534 -0.4034,18.705 -0.735,28.0538 -0.01,0.2777 -0.046,1.1992 -0.065,1.7245 -0.073,1.9063 -0.1466,3.8126 -0.2199,5.7189 -0.015,0.2612 -0.053,1.1986 -0.077,1.7201 -0.286,6.8628 -0.636,13.7227 -1.0212,20.5806 -0.013,0.2605 -0.071,1.1977 -0.1016,1.7187 -0.1139,1.9043 -0.2278,3.8087 -0.3417,5.713 -0.019,0.2358 -0.079,1.1967 -0.1138,1.7121 -1.0304,16.1159 -2.3522,32.2131 -3.9761,48.2801 -0.012,0.071 -0.1222,1.14 -0.1707,1.581 -0.4683,4.5267 -0.9694,9.0503 -1.4914,13.5713 -0.039,0.366 -0.1397,1.1926 -0.2025,1.735 -0.4211,3.5935 -0.8737,7.1834 -1.3287,10.7728 -0.067,0.4829 -0.1754,1.3223 -0.2583,1.9418 -0.1029,0.786 -0.255,1.9133 -0.3277,2.4899 -3.2495,24.0499 -7.2711,48.0336 -13.2045,71.5801 -3.0719,11.9439 -6.5238,23.787 -10.0885,35.5919 -13.6788,44.9318 -30.5733,88.8954 -50.7226,131.326 -0.1535,0.3135 -0.5171,1.0837 -0.7511,1.5721 -9.0386,18.9216 -18.7935,37.6925 -29.1622,55.9991 -0.2404,0.4283 -0.7103,1.2507 -0.8152,1.4464 -8.4932,14.9367 -17.4127,29.6307 -26.7442,44.0586 -0.1464,0.2173 -0.6546,1.0055 -0.9403,1.4425 -29.405,45.2717 -62.9811,87.8254 -100.0929,127.0262 -0.2041,0.2204 -0.827,0.8701 -1.1919,1.2553 -34.1466,35.9418 -71.2688,69.0365 -110.7026,99.0748 -0.07,0.046 -0.9153,0.692 -1.2716,0.9595 -55.176,41.9096 -114.8458,77.7815 -177.2343,107.8667 -25.8202,12.446 -52.1116,23.9087 -78.7714,34.4355 -0.3022,0.113 -1.1179,0.438 -1.617,0.6323 -47.5411,18.6809 -96.2353,34.3948 -145.6328,47.378 -14.1978,3.6878 -28.4509,7.1512 -42.7209,10.5483 -0.3049,0.074 -1.169,0.2735 -1.6884,0.3958 -23.3834,5.4909 -46.9451,10.3332 -70.7628,13.5202 -0.382,0.047 -1.1905,0.1562 -1.7358,0.227 -15.1088,2.012 -30.2919,3.4264 -45.4947,4.4976 -0.2522,0.021 -1.1969,0.081 -1.7158,0.1175 -24.2315,1.6437 -48.5077,2.5053 -72.7822,3.2048 -0.3788,0.013 -1.2003,0.032 -1.7486,0.047 -3.2283,0.084 -6.6443,0.1761 -9.7553,0.2554 -11.8607,0.2921 -23.7221,0.5548 -35.584,0.7891 -1.6562,0.028 -3.5328,0.066 -5.2737,0.097 -20.6774,0.3931 -41.355,0.78 -62.0349,1.0124 -0.3382,-4e-4 -1.17,0.01 -1.6973,0.014 -18.5839,0.1819 -37.1697,0.2593 -55.7539,0.068 -0.3958,0 -1.2006,-0.014 -1.753,-0.02 -8.6668,-0.1006 -17.3328,-0.2658 -25.997,-0.5032 -0.3534,-0.014 -1.2002,-0.036 -1.7425,-0.054 -29.5137,-0.8447 -59.0149,-2.8356 -88.2949,-6.7005 -8.4558,-1.1066 -16.8928,-2.3536 -25.3142,-3.6969 -0.2794,-0.05 -1.1845,-0.1931 -1.7044,-0.2789 -17.0492,-2.7578 -34.027,-5.937 -50.9871,-9.1923 -17.8622,-3.4782 -36.1236,-7.3716 -53.5699,-11.3875 -12.2515,-2.8501 -24.6035,-5.8436 -36.8321,-9.005 -0.9473,-0.2433 -1.8947,-0.4867 -2.842,-0.73 -0.2267,-0.064 -1.1597,-0.3056 -1.6588,-0.4382 -81.5294,-21.29 -161.3169,-49.6969 -237.145,-86.541 -5.367,-2.5966 -10.7005,-5.2512 -16.0243,-7.929 -0.2324,-0.1239 -1.0695,-0.544 -1.5346,-0.7819 -12.2977,-6.2238 -24.4725,-12.6894 -36.5299,-19.3666 -0.2767,-0.1502 -1.049,-0.5838 -1.5158,-0.8427 -1.0631,-0.5921 -2.1262,-1.1843 -3.1893,-1.7764 -0.2367,-0.1388 -1.0451,-0.5898 -1.5016,-0.8487 -55.2644,-31.0625 -107.8308,-66.9562 -156.6845,-107.3679 -22.0562,-18.2337 -43.3614,-37.3742 -63.8588,-57.344 -0.1776,-0.1804 -0.8564,-0.8401 -1.227,-1.2051 -15.2419,-14.9015 -30.02661,-30.2695 -44.35306,-46.0527 -0.20989,-0.2389 -0.80444,-0.8912 -1.16189,-1.2886 -23.69332,-26.2065 -46.12442,-53.5555 -67.19012,-81.917 -12.22581,-16.5144 -23.92454,-33.4181 -35.08939,-50.6674 -0.13331,-0.2152 -0.64862,-1.0093 -0.92904,-1.4474 -8.2524,-12.8064 -16.20623,-25.8053 -23.84635,-38.9862 -0.17798,-0.3005 -0.60061,-1.0397 -0.87232,-1.5083 -25.67975,-44.4857 -47.80707,-91.0229 -66.06518,-139.0347 -0.11613,-0.2991 -0.42439,-1.123 -0.6142,-1.6235 -1.63239,-4.317 -3.23125,-8.6467 -4.80377,-12.9859 -0.11526,-0.3109 -0.4064,-1.1297 -0.58908,-1.6354 -11.17388,-31.0842 -20.72602,-62.7516 -28.60623,-94.8294 -7.4197,-30.2118 -13.38168,-60.9762 -17.77781,-91.8473 -0.0831,-0.5914 -0.21303,-1.4832 -0.26519,-1.8748 -0.71081,-5.0861 -1.38494,-10.1773 -2.0156,-15.274 -0.0414,-0.3657 -0.14489,-1.192 -0.21006,-1.734 -0.86603,-7.089 -1.64427,-14.1886 -2.35049,-21.2953 -0.0242,-0.293 -0.10886,-1.1309 -0.15624,-1.6328 -0.62327,-6.4702 -1.18054,-12.9467 -1.67774,-19.4277 -0.021,-0.3352 -0.0854,-1.1481 -0.12305,-1.6661 -0.82556,-11.2181 -1.44577,-22.4512 -1.87695,-33.6914 -0.0301,-0.7802 -0.0656,-1.8657 -0.0977,-2.7631 -0.0247,-0.7079 -0.0494,-1.4157 -0.0742,-2.1236 -0.004,-0.2613 -0.0353,-1.1993 -0.0498,-1.7211 -0.0861,-2.6544 -0.14584,-5.3095 -0.20994,-7.9644 -0.009,-0.3115 -0.0241,-1.2003 -0.0355,-1.7333 -1.61132,-79.9152 7.17516,-160.0515 26.32012,-237.6639 13.30486,-54.0186 31.61374,-106.8036 54.63533,-157.4505 0.0864,-0.1769 0.49989,-1.089 0.71287,-1.5504 1.56602,-3.4295 3.15243,-6.8498 4.75979,-10.2601 0.17799,-0.3648 0.5162,-1.0841 0.75552,-1.5845 11.67871,-24.596 24.43052,-48.6881 38.32838,-72.1031 13.65058,-22.484 29.24209,-43.7287 45.60345,-64.3022 23.28278,-29.1981 48.31607,-56.9701 74.39137,-83.6923 26.92967,-27.5616 55.06217,-53.9524 84.34007,-79.0067 2.9584,-2.5329 5.936,-5.0431 8.9152,-7.5515 0.188,-0.1507 0.9218,-0.7673 1.3202,-1.0977 22.2029,-18.5451 45.1034,-36.2777 68.9164,-52.713 5.7159,-3.9332 11.4904,-7.7802 17.2907,-11.5877 0.2581,-0.1727 1.0051,-0.6565 1.4508,-0.9485 27.7353,-18.1333 56.0622,-35.3681 85.016,-51.4878 0.3981,-0.2271 0.7548,-0.4216 1.3476,-0.7489 15.9595,-8.85254 32.0985,-17.38258 48.4258,-25.53748 0.2675,-0.13681 1.075,-0.5342 1.5498,-0.77106 15.809,-7.87041 31.7959,-15.38277 47.9405,-22.53948 0.2457,-0.1118 1.0983,-0.48336 1.5775,-0.69508 4.4775,-1.97698 8.9707,-3.91827 13.4713,-5.84203 0.2714,-0.11021 1.1055,-0.46745 1.5931,-0.67254 34.9599,-14.84298 70.6683,-27.92315 106.9518,-39.14973 0.1047,-0.0271 1.0994,-0.3355 1.5301,-0.46565 48.8783,-15.05652 98.7843,-26.72336 149.2102,-35.23943 0.3038,-0.0538 1.184,-0.19805 1.709,-0.28656 1.2103,-0.20201 2.4205,-0.40401 3.6308,-0.60601 0.3201,-0.0484 1.1851,-0.19224 1.7142,-0.27725 6.556,-1.07439 13.1223,-2.08517 19.694,-3.05869 0.3142,-0.0492 1.188,-0.17283 1.7169,-0.25056 6.7684,-0.98923 13.5454,-1.91886 20.328,-2.80413 0.2628,-0.0361 1.1358,-0.14495 1.6328,-0.20898 38.1867,-4.91578 76.5795,-8.16142 115.0332,-10.03907 0.3782,-0.0142 1.1995,-0.056 1.7473,-0.0807 10.6314,-0.50743 21.2679,-0.90167 31.907,-1.20638 0.3788,-0.0131 1.2003,-0.0321 1.7486,-0.0475 3.1618,-0.087 6.3237,-0.16228 9.4858,-0.23571 0.3434,-0.01 1.1635,-0.0238 1.6895,-0.0352 1.2059,-0.0186 2.6663,-0.0481 3.97,-0.0709 11.2365,-0.22324 22.4751,-0.29633 33.7136,-0.31782 z" />
    <path
       id="path1-1"
       style="fill:#1d5184;fill-opacity:1"
       d="m 2734.6133,1247.6055 c -1.5274,0.5996 -3.0547,1.1992 -4.5821,1.7988 -1.4563,2.3263 -3.0182,4.6133 -4.4089,6.9642 -0.2073,1.7126 -0.5857,3.4193 -0.6832,5.1357 0.1422,3.8909 1.358,7.6223 2.3125,11.3667 4.5152,16.4146 9.4545,32.708 14.211,49.0531 3.8946,14.0558 6.7064,28.3912 9.0088,42.7865 0.246,1.5244 0.4694,3.0522 0.7024,4.5786 0.01,0.076 0.163,1.1352 0.2248,1.5752 0.9814,6.7814 1.8091,13.5854 2.4549,20.4072 0,0.012 0.1011,1.1363 0.138,1.5682 0.7199,7.8154 1.077,15.663 1.0241,23.5119 0.1571,13.4824 0.8333,27.0993 4.219,40.2099 2.5767,10.1155 7.039,19.7335 13.0681,28.253 3.8717,5.5618 8.3916,10.6285 13.0315,15.5535 14.6697,15.9668 27.7855,33.5069 37.693,52.8415 9.4088,18.1995 15.8271,37.8475 19.8581,57.907 5.0257,24.9564 6.7107,50.4575 7.059,75.8722 0.1047,9.898 0.044,19.797 -0.04,29.6949 0,0.3031 -0.015,1.2003 -0.021,1.7315 -0.019,1.5094 -0.039,3.0188 -0.059,4.5283 -0.01,0.2042 -0.024,1.1982 -0.035,1.7078 -0.027,1.4021 -0.054,2.8042 -0.081,4.2062 5e-4,0.097 -0.029,1.1482 -0.04,1.5959 -0.3689,13.6542 -0.9161,27.3559 -3.1298,40.856 -1.5617,9.6085 -4.329,19.0191 -8.2875,27.9148 -4.3358,9.8021 -9.6599,19.1258 -15.0628,28.3691 -8.336,13.9217 -17.9794,27.2747 -30.225,38.036 -10.9155,9.6851 -23.7135,17.0136 -37.0364,22.8472 -11.0091,4.8494 -22.4027,8.7583 -33.8576,12.4021 -7.1174,2.4661 -13.0091,7.8493 -16.6396,14.3921 -4.3587,7.7536 -5.9882,16.7199 -6.4058,25.5161 -0.5349,12.034 1.057,24.0648 3.5186,35.8236 4.0651,19.0366 10.5834,37.5018 18.7257,55.1645 6.5707,14.1907 14.3053,27.8484 23.2247,40.6968 16.3037,23.9146 30.688,49.3132 40.8008,76.4935 7.8373,20.9029 13.0393,42.7529 15.9226,64.878 3.361,25.3911 3.8264,51.5974 2.9612,76.8408 -0.056,1.4895 -0.1121,2.979 -0.1681,4.4684 0,-0.045 -0.053,1.1332 -0.072,1.5575 -0.7178,15.5158 -1.4526,31.0462 -1.1955,46.5829 0.1838,7.244 0.4638,14.5487 2.0528,21.6439 1.1853,5.2579 3.5048,10.4977 7.7123,14.026 2.6709,2.287 6.0207,3.7714 9.5139,4.1942 4.5136,0.5658 9.1344,-0.6992 12.9411,-3.1372 5.4837,-3.5194 9.4942,-8.8065 13.2075,-14.0577 6.3815,-9.2823 11.8407,-19.1549 17.2319,-29.033 9.4227,-17.456 18.3334,-35.1822 27.216,-52.9174 21.9976,-45.0466 42.4995,-91.0297 57.1295,-139.0574 8.556,-27.9637 15.0123,-56.5621 19.4215,-85.4692 6.3389,-41.3121 8.7228,-83.1224 9.5403,-124.8756 0.365,-17.8491 0.3564,-35.7031 0.2863,-53.555 -0.046,-30.7014 -0.2424,-61.4128 -1.5608,-92.09 -1.1778,-27.1203 -3.4408,-54.2393 -8.106,-81.0002 -4.6947,-27.4165 -11.8582,-54.3262 -19.2854,-81.1067 -12.2551,-43.7786 -26.5471,-87.0443 -44.2472,-128.9416 -14.4321,-34.2657 -31.1748,-67.5518 -49.9953,-99.6158 -21.8672,-37.3154 -46.4128,-73.0024 -72.3268,-107.6089 -8.3315,-11.0079 -16.7575,-21.9561 -25.6988,-32.4789 -2.6246,-2.9799 -5.1611,-6.1097 -8.3439,-8.5196 -1.5091,-1.1429 -3.2223,-1.9758 -5.0258,-2.5386 -1.3517,-0.628 -2.8795,-0.4384 -4.3241,-0.6357 -1.002,0.011 -2.0698,-0.4217 -2.9936,0.1143 -0.8247,0.3243 -1.6495,0.6486 -2.4742,0.9729 z" />
    <path
       id="path1-2"
       style="fill:#2173bd;fill-opacity:1"
       d="m 1872.6504,355.52341 c -80.4648,0.60962 -160.906,7.93213 -240.0733,22.39225 -61.3164,11.21412 -121.882,26.71705 -180.8249,47.03079 -59.2455,20.42947 -116.8907,45.7358 -171.3698,76.76739 -33.977,19.37674 -66.6951,41.00472 -97.5135,65.10417 -8.5287,6.64047 -17.1436,13.32976 -25.6306,19.92415 -51.2407,39.71384 -102.6586,79.20842 -154.8037,117.73095 -34.60158,25.51177 -69.50773,50.63282 -105.27473,74.49233 -15.79091,10.51797 -31.75943,20.77356 -47.99971,30.58531 -0.20394,0.12804 -1.02788,0.61814 -1.47082,0.88576 -18.17028,10.92115 -36.69788,21.27253 -55.7577,30.56541 -0.17938,0.0904 -1.07854,0.52229 -1.53637,0.7448 -1.31857,0.64147 -2.64466,1.26724 -3.96754,1.89973 -0.23681,0.10659 -1.08591,0.51024 -1.55841,0.73117 -22.50496,10.60104 -45.8437,19.47328 -69.82704,26.10847 -9.65229,2.66377 -19.3841,5.05239 -29.19035,7.07799 -29.40768,5.67526 -58.81534,11.35052 -88.22302,17.02573 31.91232,24.50684 63.83397,49.0018 95.73307,73.52566 14.35959,11.00487 28.86937,21.81231 43.3293,32.68483 2.2978,1.824 4.52674,3.7339 6.797,5.5923 2.96951,-0.7676 5.97125,-1.4416 8.92056,-2.2679 3.49821,-1.4487 6.49637,-3.816 9.63486,-5.88744 16.12336,-11.1919 32.07038,-22.63514 48.05776,-34.01987 11.07127,-7.87455 22.08487,-15.83059 33.19935,-23.6441 1.74383,-1.22415 3.83538,-2.66424 5.37744,-3.72742 37.90326,-26.02291 77.60185,-49.35116 118.18601,-70.92351 9.14773,-4.86069 18.34995,-9.61826 27.59082,-14.29934 0.34726,-0.17089 1.07243,-0.54003 1.56436,-0.78681 27.11446,-13.68578 54.60936,-26.61289 82.38876,-38.89093 0.4108,-0.18446 1.1597,-0.51085 1.7,-0.74966 1.0938,-0.48033 2.4127,-1.06376 3.3684,-1.48081 24.1568,-10.58296 48.5283,-20.6749 73.0859,-30.29101 0.3794,-0.14411 1.1189,-0.43552 1.6361,-0.63602 2.9956,-1.17157 5.9961,-2.3305 8.9967,-3.48898 0.6265,-0.24453 1.5561,-0.59768 2.2989,-0.88389 6.3513,-2.43924 12.7178,-4.8385 19.0917,-7.21767 0.3745,-0.13493 1.1261,-0.41686 1.6448,-0.60805 15.5802,-5.78454 31.2309,-11.37868 46.9451,-16.78844 0.3627,-0.1204 1.1363,-0.38805 1.6563,-0.56483 8.4936,-2.91273 17.0068,-5.76832 25.537,-8.57189 0.3823,-0.12115 1.1415,-0.37235 1.6681,-0.54328 3.0753,-1.00864 6.155,-2.00341 9.2343,-2.99969 0.4254,-0.13972 1.2066,-0.38726 1.7683,-0.56827 4.8595,-1.56301 9.7274,-3.09988 14.5989,-4.62509 0.5376,-0.16221 1.4011,-0.43499 2.0636,-0.6396 1.2392,-0.38523 2.6351,-0.81945 3.7406,-1.16354 21.5604,-6.66418 43.4606,-13.02563 65.1001,-18.89021 33.8657,-9.16894 67.9911,-17.39298 102.3593,-24.45508 0.3846,-0.0823 1.1765,-0.24008 1.717,-0.35128 4.6189,-0.94228 9.239,-1.87894 13.8631,-2.79521 0.6243,-0.12622 1.5701,-0.30946 2.3177,-0.45756 14.5914,-2.8717 29.2187,-5.56016 43.8757,-8.07564 0.3785,-0.0608 1.1839,-0.20048 1.7258,-0.29147 1.2864,-0.21795 2.6968,-0.4584 3.8533,-0.65404 1.5237,-0.25295 3.2482,-0.54375 4.6474,-0.77324 1.726,-0.2832 3.4519,-0.56641 5.1778,-0.84961 0.3972,-0.0672 1.1853,-0.1914 1.7321,-0.28042 9.6905,-1.56914 19.3968,-3.03846 29.1097,-4.46177 0.2387,-0.0293 1.1875,-0.16823 1.7,-0.23979 40.3244,-5.81011 80.845,-10.25045 121.4679,-13.34419 0.2352,-0.0133 1.1962,-0.0868 1.7113,-0.12333 6.2521,-0.47005 12.5073,-0.89705 18.7634,-1.31222 0.2277,-0.0172 1.1968,-0.0741 1.7106,-0.10658 46.8087,-2.97129 93.7336,-4.10862 140.6311,-3.39733 0.2369,0.008 1.1992,0.0224 1.7158,0.0328 16.1923,0.26236 32.3805,0.75952 48.5596,1.46334 0.2283,0.0156 1.1978,0.057 1.7121,0.0826 2.7666,0.13003 5.5331,0.26006 8.2997,0.3901 0.2196,0.009 1.1972,0.063 1.7096,0.0893 62.4216,3.18539 124.6801,9.73742 186.3589,19.87258 37.5411,6.17335 74.867,13.66809 111.8592,22.56154 0.3459,0.0874 1.1668,0.28337 1.6946,0.41236 8.6786,2.09845 17.3391,4.27148 25.9792,6.52319 0.394,0.1069 1.1613,0.30514 1.6981,0.44701 2.4922,0.65007 4.9808,1.31335 7.4699,1.97486 0.3491,0.0908 1.1595,0.3121 1.6852,0.45289 1.158,0.31308 2.3729,0.63724 3.4152,0.92355 13.4575,3.65095 26.8617,7.49786 40.2082,11.53567 0.3691,0.10928 1.1487,0.34945 1.675,0.50883 2.4298,0.73635 4.8556,1.48598 7.282,2.23336 0.3763,0.11343 1.1465,0.35667 1.6736,0.51979 0.9317,0.29028 1.8635,0.58056 2.7952,0.87084 0.3352,0.10958 1.1449,0.36179 1.6619,0.52601 15.7108,4.94468 31.3336,10.16931 46.8596,15.66735 0.3537,0.13016 1.1309,0.40343 1.6468,0.58838 3.8016,1.3498 7.5947,2.72359 11.3844,4.10693 0.3495,0.12497 1.127,0.41425 1.6404,0.60214 0.9619,0.35542 2.1043,0.77136 2.9181,1.07663 14.2479,5.27553 28.4074,10.79002 42.4649,16.55365 0.3664,0.14661 1.1105,0.45676 1.6214,0.66597 10.6598,4.38419 21.2574,8.91898 31.7947,13.58989 0.3171,0.13716 1.0967,0.48876 1.591,0.70808 0.9541,0.42693 2.0298,0.9029 2.8539,1.27626 20.3419,9.12098 40.4394,18.78838 60.2484,29.01566 0.3386,0.17981 1.0657,0.55324 1.553,0.80718 2.1138,1.09088 4.2191,2.1979 6.3259,3.30219 0.3505,0.18096 1.062,0.56033 1.5506,0.81723 6.0102,3.16715 11.986,6.39931 17.9377,9.67496 0.3273,0.17523 1.051,0.5806 1.5302,0.84394 0.7585,0.42109 1.7869,0.98549 2.3716,1.31419 1.271,0.70966 2.542,1.41932 3.813,2.12898 0.3088,0.16979 1.0464,0.58896 1.5194,0.85427 33.8447,19.06437 66.7314,39.85313 98.2938,62.50286 14.6713,10.71853 29.2987,21.50992 44.3564,31.68443 8.3099,5.53009 16.7345,10.9973 25.8629,15.09542 7.1352,3.19473 14.9867,5.30096 22.8563,4.5458 7.0778,-0.58694 13.7156,-3.52531 19.7198,-7.18102 4.4148,-2.73888 8.7842,-5.55111 13.2052,-8.28089 9.7939,-6.12115 19.5877,-12.2423 29.3816,-18.36345 -23.0376,-32.39665 -46.0515,-64.81019 -69.1045,-97.19578 -30.7116,-42.54393 -61.4208,-85.09162 -92.6372,-127.26749 -18.1495,-24.43836 -36.4065,-48.80892 -55.5089,-72.5149 -16.9182,-20.90237 -34.5242,-41.4002 -54.651,-59.30853 -13.6855,-12.18683 -28.4061,-23.15008 -43.3953,-33.66838 -53.3867,-37.25111 -112.3386,-66.06657 -173.477,-88.17275 -48.9322,-17.69033 -99.3183,-31.18778 -150.2824,-41.5748 -39.5232,-8.05733 -79.4205,-14.21034 -119.4741,-18.93868 -59.8631,-7.20191 -120.1878,-10.55033 -180.4794,-10.11845 z" />
    <path
       id="path1-02"
       style="fill:#1d5184;fill-opacity:1"
       d="m 1874.3301,245.72263 c -63.3947,0.14756 -126.7984,3.45739 -189.8174,10.40158 -51.8623,5.74262 -103.4872,13.93037 -154.3848,25.47783 -27.8608,6.32348 -55.4849,13.71297 -82.7139,22.36823 -34.9701,10.93574 -69.5374,23.25369 -103.1764,37.80421 -36.056,15.54394 -70.9637,33.68418 -104.7133,53.73277 -39.9608,23.71051 -78.4224,49.85413 -116.1513,76.9496 -42.6351,30.67721 -84.365,62.58965 -125.77077,94.90001 -17.94804,13.99908 -35.79949,28.12156 -53.65143,42.24277 -18.9932,14.89139 -38.39191,29.26486 -58.15978,43.11128 -0.20283,0.13497 -0.98508,0.6844 -1.41122,0.9791 -1.34079,0.93275 -2.68158,1.86549 -4.02238,2.79824 -0.22519,0.15961 -0.98831,0.68075 -1.42034,0.97937 -33.78047,23.28293 -68.64665,45.04484 -104.84753,64.37373 -24.19947,12.86999 -48.99747,24.70599 -74.66389,34.36746 -15.79723,5.88892 -31.93625,11.02293 -48.51335,14.20487 -8.33159,1.60281 -16.78395,2.46712 -25.23159,3.17883 -11.24883,0.85546 -22.75744,1.09252 -33.7602,-1.77641 -10.59768,-2.71687 -20.22725,-8.13955 -29.47294,-13.83902 -10.92387,-5.97374 -21.77462,-12.09061 -32.87904,-17.72646 -3.8388,-1.8559 -7.67037,-3.88499 -11.85587,-4.83756 -1.34489,-0.31118 -2.74087,-0.43362 -4.11459,-0.45248 -1.41268,0.13947 -2.83661,0.22293 -4.1768,0.73212 -1.31906,0.31298 -2.50957,1.00664 -3.68154,1.6606 -1.10689,0.74169 -2.17388,1.53018 -3.06415,2.52972 -1.28666,1.2682 -2.26028,2.83106 -3.07964,4.4338 -2.22811,4.65949 -2.91548,9.85427 -3.55995,14.92476 -0.82471,7.4856 -1.14212,15.02975 -0.98226,22.55812 0.35115,11.4026 3.43308,22.71918 9.03294,32.66605 5.95732,10.70699 14.46905,19.79784 23.90355,27.52641 8.34544,6.35471 17.13956,12.33564 26.985,16.11828 11.30106,4.44487 23.51093,5.89536 35.57095,6.29803 14.94416,0.45177 29.88937,-0.35498 44.80432,-1.22107 33.11678,-1.8114 65.74548,-9.13401 97.14351,-19.62654 35.03817,-11.75367 68.65608,-27.43587 100.98841,-45.26987 40.5213,-22.41008 79.07597,-48.23319 116.17911,-75.89922 15.08252,-11.25942 29.86947,-22.90664 44.79498,-34.37185 43.18129,-33.31284 86.40199,-66.57717 129.96139,-99.39497 30.7017,-23.10017 61.5416,-46.03132 93.0497,-68.02492 27.8907,-19.43796 56.4192,-38.06197 86.401,-54.13796 0.4822,-0.25852 1.1988,-0.64954 1.4466,-0.77673 15.9488,-8.53876 32.2516,-16.39441 48.6391,-24.04946 51.6562,-23.90406 105.5327,-42.83091 160.3981,-57.88513 0.6053,-0.16837 0.883,-0.2448 1.5805,-0.43254 5.8987,-1.60691 11.8101,-3.1668 17.7312,-4.68933 0.2605,-0.069 1.163,-0.29534 1.6705,-0.42486 9.9629,-2.54542 19.9622,-4.94616 29.9838,-7.24897 0.223,-0.0536 1.1696,-0.26454 1.6718,-0.37884 1.5716,-0.35484 3.1432,-0.70968 4.7149,-1.06452 0.2719,-0.0562 1.172,-0.25805 1.6854,-0.37024 27.5517,-6.11705 55.3046,-11.31745 83.1857,-15.69031 0.28,-0.0463 1.1861,-0.18309 1.7067,-0.26417 37.5066,-5.82383 75.2476,-10.11905 113.0941,-12.98973 0.3017,-0.0247 1.1971,-0.0882 1.7268,-0.12784 1.7082,-0.12535 3.4165,-0.25071 5.1247,-0.37607 0.3183,-0.0187 1.1977,-0.0823 1.7313,-0.11818 29.2729,-2.05195 58.606,-3.23147 87.9484,-3.58299 0.3115,9e-5 1.2004,-0.0111 1.7335,-0.0153 31.8199,-0.34158 63.65,0.32622 95.4286,1.97818 0.2941,0.0205 1.1985,0.0661 1.727,0.0962 4.0491,0.21339 8.0966,0.45346 12.1441,0.69483 0.2852,0.0154 1.1978,0.0763 1.7241,0.10911 15.5817,0.97894 31.1481,2.20109 46.6919,3.66433 0.3085,0.0266 1.195,0.11512 1.7253,0.16548 1.725,0.16684 3.4501,0.33369 5.1751,0.50054 0.2838,0.0322 1.194,0.12168 1.7185,0.17591 15.4811,1.55005 30.9359,3.3596 46.3596,5.40221 0.2817,0.0428 1.1893,0.16171 1.7115,0.23375 1.7082,0.23133 3.4163,0.46266 5.1245,0.69399 0.2803,0.0357 1.1885,0.16645 1.7102,0.23869 29.7262,4.13674 59.5067,9.25583 89.0855,15.37832 55.5246,11.45658 110.5372,25.98992 163.6242,46.0197 28.5152,10.76838 56.4332,23.15771 83.3691,37.43555 0.07,0.043 1.0114,0.5418 1.4033,0.7532 35.7557,19.04021 69.6805,41.5315 101.0394,67.18112 35.6174,29.0699 67.8812,62.11084 97.1351,97.5404 6.6732,8.07469 13.1935,16.27525 19.5804,24.57802 0.1508,0.19133 0.7288,0.95268 1.0443,1.36371 11.4426,14.94889 22.4396,30.23658 33.0612,45.77886 0.1628,0.24795 0.6745,0.99296 0.9712,1.43178 7.5966,11.14922 14.9389,22.46864 22.4729,33.66003 19.0422,28.43983 38.2903,56.75098 58.3407,84.49287 10.3293,14.2022 20.8108,28.31309 32.0887,41.78217 5.8553,6.89392 11.8479,13.74069 18.7655,19.59989 4.473,3.73089 9.6113,7.08402 15.4959,7.89903 4.3196,0.61877 8.7906,-0.36865 12.5391,-2.57112 5.6439,-3.30113 9.6186,-8.77039 12.6385,-14.4509 3.4303,-6.53139 5.672,-13.62428 7.1902,-20.82522 2.5558,-9.50706 3.2062,-19.64757 0.9419,-29.28105 -2.2914,-10.0704 -7.6223,-19.2167 -14.2573,-27.04088 -2.3765,-2.80771 -4.9484,-5.44735 -7.1978,-8.36343 -8.1074,-10.20745 -15.6961,-20.81305 -23.2693,-31.41888 -5.8905,-8.29745 -11.6998,-16.65208 -17.4702,-25.03343 -0.1583,-0.22606 -0.6773,-0.99071 -0.9742,-1.42385 -7.4285,-10.83874 -14.7663,-21.73946 -22.0238,-32.69333 -0.4538,-0.68121 -1.0655,-1.61342 -1.58,-2.39102 -5.7619,-8.68092 -11.3844,-17.45317 -17.0797,-26.17747 -29.942,-45.48606 -62.7094,-89.22675 -99.5438,-129.38471 -30.1144,-32.87147 -63.0039,-63.24376 -98.5671,-90.14695 -33.4821,-25.38498 -69.2931,-47.64964 -106.6361,-66.88995 -9.4007,-4.8286 -18.8564,-9.55925 -28.4931,-13.90145 -29.3442,-13.39456 -59.0379,-26.02677 -89.0414,-37.87149 -18.4109,-7.21629 -36.9204,-14.22081 -55.7659,-20.22915 -6.2727,-1.99879 -12.6259,-3.72809 -19.0121,-5.32313 -50.3108,-12.81542 -101.4703,-22.13957 -152.9217,-28.97589 -66.3667,-8.76943 -133.2592,-13.38525 -200.1856,-14.4753 -11.1057,-0.17758 -22.2129,-0.25295 -33.32,-0.23349 z" />
    <path
       id="path1-36"
       style="fill:#1d5184;fill-opacity:1"
       d="m 1944.9355,2976.3398 c -44.7176,0.2514 -89.4234,2.4482 -133.9565,6.5073 -32.8313,3.0343 -65.5914,7.053 -98.0604,12.8269 -14.654,2.6291 -29.2571,5.5919 -43.6909,9.2514 -41.8156,10.9529 -82.7885,25.2096 -122.2092,42.9624 -29.3684,13.2674 -57.9207,28.4654 -84.7759,46.312 -19.3807,12.9295 -37.9374,27.2366 -54.4428,43.72 -12.1111,12.1656 -23.1873,25.5619 -31.3972,40.6987 -6.4401,11.9044 -11.0058,25.0475 -11.7182,38.6418 -0.2092,5.0195 -0.059,10.0464 -0.1043,15.069 0,17.4651 0,34.9302 0,52.3953 23.3677,-20.0934 46.71,-40.2167 70.092,-60.2933 10.6704,-8.8917 22.0543,-16.8838 33.5955,-24.5954 6.8359,-4.5295 13.7575,-8.9293 20.7597,-13.1972 0.1665,-0.095 1.0256,-0.6194 1.4602,-0.8807 13.8355,-8.3502 27.9508,-16.2714 42.5594,-23.1955 0.311,-0.1417 1.0855,-0.5131 1.5742,-0.7428 4.5701,-2.1623 9.1774,-4.2452 13.8105,-6.2689 0.2363,-0.098 1.101,-0.4767 1.5793,-0.6827 18.4123,-7.9546 37.2368,-14.9276 56.2606,-21.2704 0.02,-0.01 1.0849,-0.3562 1.4982,-0.4927 3.6977,-1.2249 7.4082,-2.4106 11.119,-3.5952 0.067,-0.025 1.0944,-0.3419 1.5174,-0.475 10.3801,-3.2651 20.8236,-6.3261 31.3048,-9.2496 0.1025,-0.031 1.1084,-0.3044 1.5418,-0.4243 40.2148,-11.0869 81.0412,-19.9024 122.166,-26.864 46.0337,-7.7572 92.4736,-13.1992 139.0869,-15.8408 11.7091,-0.6533 23.4285,-1.1167 35.1526,-1.3905 0.066,0 1.1459,-0.021 1.5884,-0.028 1.8169,-0.034 3.6338,-0.067 5.4507,-0.1013 0.089,0 1.1479,-0.014 1.5944,-0.019 14.2266,-0.2242 28.4609,-0.024 42.6703,0.7295 30.8476,1.589 61.5804,5.0509 92.1009,9.762 16.1625,2.5058 32.2658,5.3956 48.2867,8.6882 0.2487,0.049 1.1745,0.2444 1.684,0.3497 23.6931,4.947 47.2417,10.7064 70.3211,18.0266 3.3086,1.0517 6.6029,2.1478 9.8875,3.2721 -0.034,-0.01 1.0717,0.3761 1.4736,0.5188 10.1701,3.5724 20.2498,7.4872 29.8743,12.3618 9.9184,5.1772 19.9057,10.2843 30.3291,14.3801 6.2511,2.369 12.7841,4.5443 19.5496,4.4268 5.3101,-0.093 10.6859,-2.0523 14.4204,-5.9037 3.9373,-3.9143 5.8204,-9.5581 5.6873,-15.0498 -0.053,-10.8242 -3.7135,-21.3707 -9.2115,-30.6027 -7.0738,-11.8899 -16.8637,-21.9189 -27.4216,-30.7543 -15.5687,-12.891 -32.9984,-23.355 -51.0006,-32.4626 -23.2239,-11.6727 -47.5541,-21.0513 -72.3533,-28.7871 -28.5121,-8.8547 -57.6972,-15.5225 -87.199,-20.086 -22.9643,-3.4249 -46.1377,-5.2578 -69.3193,-6.3802 -21.0281,-1.0096 -42.0848,-1.355 -63.1357,-1.2666 z" />
    <path
       id="path1-0"
       style="fill:#1d5184;fill-opacity:1"
       d="m 1947.0293,3105.3145 c -62.6004,0.3743 -125.2073,5.3787 -186.9707,15.6621 -47.255,7.9143 -94.0527,18.8959 -139.5449,33.998 -33.3429,11.1224 -66.0259,24.4412 -97.0301,41.0538 -22.4095,12.0526 -43.9815,25.8336 -63.511,42.191 -17.0955,14.3461 -32.6806,30.7643 -44.531,49.7544 -9.4969,15.2173 -16.422,32.1922 -19.1178,49.9792 -1.1761,7.9286 -1.6848,15.9936 -1.0392,23.9943 1.1643,14.205 6.3465,27.8875 13.9451,39.8769 9.6184,15.1984 22.7481,27.8779 37.0469,38.6547 17.3368,13.0042 36.5102,23.3756 56.2799,32.1646 26.81,11.8282 54.829,20.7475 83.2456,27.8067 15.2561,3.6212 30.828,5.7038 46.4039,7.368 26.594,2.7457 53.3177,4.0299 80.0375,4.7029 41.2372,0.9842 82.5038,0.3958 123.7137,-1.3247 38.1567,-1.6394 76.2833,-4.2488 114.2534,-8.3958 23.1236,-2.5647 46.208,-5.6504 69.0631,-10.035 10.9225,-2.0922 21.7735,-4.5692 32.4841,-7.5683 39.2541,-10.7803 77.8029,-24.3012 114.8228,-41.2703 26.0547,-11.9802 51.3878,-25.6578 75.1187,-41.7922 17.0192,-11.6085 33.2552,-24.4863 47.648,-39.2605 11.0214,-11.325 20.9358,-23.8395 28.5207,-37.7396 8.7194,-15.7025 15.1934,-32.9016 17.0763,-50.8492 1.5753,-14.6235 -0.1252,-29.6241 -5.2465,-43.4294 -5.5665,-15.2036 -15.0502,-28.7599 -26.4908,-40.1279 -13.2991,-13.2229 -29.0594,-23.7378 -45.616,-32.4312 -21.3989,-11.1923 -44.2123,-19.4575 -67.4002,-26.0798 -32.0478,-9.0766 -64.9177,-14.9898 -97.9466,-19.1078 -44.1017,-5.4374 -88.5568,-7.619 -132.9758,-7.8035 -4.0798,-0.017 -8.1594,-0.01 -12.2391,0.01 z" />
    <path
       id="path1-626"
       style="fill:#1d5184;fill-opacity:1"
       d="m 3162.752,1576.1465 c -1.0656,0.2024 -2.1439,0.3664 -3.0864,0.9403 -1.1295,0.5554 -2.3534,0.9599 -3.256,1.8763 -0.9899,0.7827 -1.9942,1.5508 -2.7084,2.6092 -0.852,0.9843 -1.5797,2.0517 -2.1138,3.2418 -2.1235,4.251 -2.2193,9.1359 -2.2087,13.7906 0.1436,9.4443 1.1067,18.8527 2.0811,28.2406 2.6053,23.7867 6.1239,47.4649 10.0372,71.0686 3.9698,22.8352 6.6332,45.8772 8.7799,68.9486 1.3593,14.6681 2.4612,29.359 3.4047,44.0594 0.015,0.3102 0.073,1.1983 0.1043,1.7302 0.3099,4.9103 0.5901,9.8223 0.8664,14.7346 0.02,0.3276 0.063,1.199 0.093,1.735 0.4261,7.8549 0.7918,15.7128 1.134,23.5717 0.01,0.3445 0.048,1.1997 0.069,1.7399 0.5785,13.8654 1.0179,27.7363 1.3528,41.6097 0.011,0.3619 0.026,1.2004 0.039,1.7449 0.1905,8.2235 0.3317,16.4481 0.4452,24.673 9e-4,0.3704 0.013,1.2007 0.018,1.7472 0.2476,19.9771 0.2585,39.9571 0.036,59.9345 0,0.3788 -0.015,1.2006 -0.021,1.749 -0.093,8.0883 -0.2401,16.1757 -0.4102,24.2627 -0.012,0.3704 -0.029,1.2004 -0.043,1.7468 -0.428,18.8909 -1.0908,37.7767 -2.0217,56.6497 -0.02,0.3276 -0.063,1.199 -0.091,1.7351 -0.3675,7.2927 -0.7857,14.5827 -1.2426,21.8703 -0.017,0.2935 -0.079,1.1978 -0.1129,1.7258 -0.441,6.8751 -0.9712,14.1807 -1.4851,20.7763 -0.1965,2.399 -0.393,4.7981 -0.5895,7.1972 -0.024,0.2267 -0.1054,1.1945 -0.1514,1.7071 -0.1566,1.7852 -0.3132,3.5703 -0.4697,5.3554 -0.017,0.2096 -0.1115,1.1934 -0.1583,1.7023 -1.8394,19.6704 -4.0895,39.3216 -7.5468,58.7801 -3.1212,15.9952 -6.0209,32.0562 -7.7587,48.2686 -0.7927,8.0008 -1.4425,16.0811 -0.6742,24.1099 0.5513,5.3499 2.0418,10.8629 5.6814,14.9728 3.1475,3.6647 7.8514,5.9425 12.6878,6.0644 5.2347,0.1972 10.2964,-2.1262 14.1385,-5.5802 4.8153,-4.284 8.3805,-9.7401 11.7422,-15.185 4.543,-7.5389 8.5162,-15.4031 12.3861,-23.3029 8.4513,-17.8725 14.5418,-36.7637 19.5429,-55.8607 7.2814,-28.1027 12.1238,-56.7845 15.7046,-85.5764 4.8927,-39.8422 7.2765,-79.9673 7.9262,-120.0948 0.715,-46.6542 -0.9362,-93.3509 -5.1121,-139.8251 -3.4517,-37.9713 -8.5657,-75.8262 -16.3158,-113.1707 -5.375,-25.6483 -11.959,-51.096 -20.8998,-75.7492 -2.7945,-7.7357 -5.9095,-15.3512 -9.223,-22.8781 -4.849,-11.2038 -10.1566,-22.2412 -16.4961,-32.686 -2.821,-4.5071 -5.7397,-9.075 -9.7433,-12.6363 -2.5572,-2.2157 -5.6984,-3.8281 -9.0713,-4.2838 -1.2729,-0.259 -2.5936,-0.1093 -3.8829,-0.1194 -0.4589,0.093 -0.9178,0.186 -1.3766,0.279 z" />
    <path
       id="path1-18"
       style="fill:#1d5184;fill-opacity:1"
       d="m 444.9668,1464.9219 c -7.68554,0.175 -15.4219,0.6159 -22.94141,2.3105 -4.63977,1.076 -9.33887,2.9037 -12.64025,6.4668 -1.96992,2.0525 -3.38971,4.6451 -4.05667,7.4111 -0.39764,1.4859 -0.47516,3.0306 -0.47619,4.5587 0.16651,1.4968 0.37443,2.9855 0.87321,4.4133 1.51677,4.2735 3.87491,8.1797 6.09063,12.116 6.58911,11.3414 13.81511,22.2999 21.29192,33.0723 11.30017,16.8579 19.72658,35.4756 26.57946,54.5302 3.12368,8.7363 5.90062,17.5946 8.39844,26.5293 0.0457,0.1822 0.31823,1.1549 0.4518,1.6432 1.01366,3.6641 2.07623,7.7669 2.92555,11.1883 0.20375,0.8264 0.50246,2.0544 0.64398,2.6173 7.60828,31.5351 12.26354,63.7261 15.06159,96.0264 0.67182,7.7536 1.218,15.5176 1.68075,23.2865 2e-5,0.096 0.0622,1.1468 0.0851,1.5939 0.0856,1.5631 0.17112,3.1262 0.25669,4.6893 0.006,0.058 0.0542,1.1441 0.076,1.5848 0.38951,7.9293 0.6665,15.8636 0.85956,23.8 -0.003,0.097 0.0219,1.1483 0.0292,1.5961 0.0313,1.6034 0.0625,3.2068 0.0938,4.8101 0.005,0.1719 0.0157,1.1973 0.023,1.7003 0.61165,43.5436 -1.65195,87.1218 -6.59236,130.3861 -4.49782,39.1787 -11.20146,78.129 -20.69038,116.4156 -0.0129,0.03 -0.28069,1.1079 -0.38923,1.531 -7.39246,29.4031 -16.44148,58.4395 -28.09695,86.4466 -8.67001,20.7135 -18.75487,40.9241 -31.32901,59.5646 -7.84613,11.6126 -16.73494,22.5801 -27.04064,32.1072 -8.06686,7.8054 -15.81628,15.9912 -22.57808,24.9665 -3.34554,4.5821 -6.65181,9.4078 -8.09619,14.9679 -1.6627,6.5103 0.31213,13.733 4.88397,18.624 4.2848,4.6995 10.42562,7.2107 16.5602,8.4054 8.70489,1.6565 17.65101,1.3468 26.42415,0.4478 13.49172,-1.483 26.80833,-4.5886 39.57054,-9.2078 8.98566,-3.3128 17.78358,-7.3902 25.55251,-13.0442 8.95937,-6.7739 16.54593,-15.1626 23.59028,-23.8616 11.66113,-14.5677 21.77141,-30.3098 31.13511,-46.4302 13.50239,-23.3964 25.34123,-47.7428 35.6449,-72.7095 7.7477,-18.8115 14.55912,-38.0182 20.10511,-57.5959 8.90784,-30.8237 15.10401,-62.3788 19.65144,-94.1226 6.06741,-42.6923 9.11257,-85.7905 9.73656,-128.8986 0.54378,-40.7509 -1.08448,-81.5524 -5.44557,-122.0803 -3.27214,-30.0889 -8.02187,-60.0603 -15.2734,-89.461 -5.07366,-20.5167 -11.44802,-40.7581 -19.95779,-60.1237 -9.0945,-20.7499 -20.31533,-40.7011 -34.59918,-58.3442 -10.22313,-12.55 -22.08514,-23.9856 -36.03721,-32.3221 -10.6538,-6.3472 -22.66013,-10.7375 -35.10409,-11.5016 -2.30731,-0.1592 -4.61993,-0.1298 -6.93086,-0.1038 z" />
    <path
       id="path1-79"
       style="fill:#1d5184;fill-opacity:1"
       d="m 333.01953,1496.9238 c -13.74857,0.1437 -27.20997,4.4656 -39.12325,11.1808 -14.03776,7.8815 -26.17064,18.7578 -36.90948,30.6664 -13.76561,15.3548 -25.36422,32.5281 -35.6936,50.3408 -9.18323,15.8511 -17.32876,32.2867 -24.70981,49.0484 -13.37606,30.275 -24.04201,61.75 -31.7289,93.9454 -9.24593,38.5446 -14.27044,78.0115 -16.45368,117.5607 -1.96189,35.5177 -1.69508,71.1262 -0.20639,106.6564 1.05076,33.6318 3.14803,67.2787 7.84813,100.6155 4.12781,28.9325 10.25164,57.7234 20.51704,85.1453 7.67672,20.4829 17.81347,40.112 30.78847,57.7543 7.37761,10.1024 15.68613,19.5042 24.61431,28.2597 7.42236,7.284 15.20633,14.4156 24.37915,19.447 7.27803,4.0304 15.55438,6.3385 23.89637,6.2515 10.13089,-0.038 19.93994,-3.1998 29.19021,-7.0936 6.73318,-2.8598 13.31086,-6.0809 19.77447,-9.5031 15.67447,-8.5955 28.96708,-20.9835 40.26493,-34.7272 13.30803,-16.2375 24.06316,-34.4175 33.29649,-53.2295 12.67111,-25.9458 22.48395,-53.2038 30.61264,-80.8842 10.55141,-36.1704 18.19994,-73.1484 23.75178,-110.4019 6.23908,-42.1167 9.78635,-84.6305 10.6805,-127.1966 0.7447,-37.0889 -0.51317,-74.2454 -4.47504,-111.1392 -3.30838,-30.6075 -8.46363,-61.0758 -16.64637,-90.7769 -6.58136,-23.636 -15.07247,-46.8805 -27.08984,-68.3301 -8.74264,-15.5265 -19.48077,-30.1027 -32.9043,-41.9121 -10.25702,-9.0604 -22.39122,-16.276 -35.75039,-19.5825 -5.85184,-1.4626 -11.89184,-2.1714 -17.92344,-2.0953 z" />
    <path
       id="path31"
       style="fill:#ffffff;fill-opacity:1"
       d="m 2481.6495,1667.7243 c -1.9125,0.1585 -3.8857,0.3018 -5.9195,0.4289 -40,3 -47,6 -40,20 4,9 9,42 11,73 6,60 -19,128 -54,148 -16,9 -14,10 9,11 51,0 108,-85 108,-164 0,-21.3813 5.6986,-28.8325 12.1082,-23.7788"
       transform="translate(0,-2.5000001e-5)" />
    <path
       id="path34"
       style="fill:#ffffff;fill-opacity:1"
       d="m 1627.1215,1616.3496 -5.3416,5.3416 24,35 c 48,72 37,185 -23,233 -34,27 -24,35 20,16 42,-17 82,-74 96,-134 7.2987,-33.4524 12.3778,-48.7778 17.2623,-48.2263"
       transform="translate(0,-2.5000001e-5)" />
    <path
       d="m 781,3825 c -162,-45 -321,-187 -321,-286 0,-36 68,-187 94,-208 9,-8 40,-16 68,-19 49,-5 51,-6 70,-50 20,-44 20,-46 2,-98 -16,-46 -16,-60 -6,-99 l 12,-46 -73,-82 c -91,-102 -142,-177 -199,-292 -43,-86 -89,-212 -103,-282 -6,-28 -16,-37 -73,-65 -57,-28 -72,-41 -99,-87 -42,-70 -63,-167 -63,-291 0,-185 55,-357 139,-433 36,-33 119,-67 161,-67 9,0 29,-25 47,-58 34,-62 107,-165 178,-252 25,-30 45,-60 45,-67 0,-7 -35,-39 -77,-71 C 452,872 425,831 437,755 c 13,-78 75,-105 154,-64 35,17 45,19 77,8 73,-24 130,-60 260,-164 228,-182 325,-240 490,-294 134,-45 264,-63 447,-64 263,0 419,31 601,118 90,44 126,68 192,129 44,42 107,115 140,164 33,48 70,96 82,107 33,30 50,69 50,115 0,54 -19,89 -76,138 l -46,41 65,75 c 106,122 182,245 232,379 15,39 25,50 61,66 54,24 86,73 116,176 20,70 23,103 23,260 0,160 -3,188 -23,252 -24,78 -64,133 -110,152 -22,9 -32,26 -55,94 -118,341 -343,615 -642,779 -68,37 -80,48 -86,76 -42,206 -490,340 -839,251 -101,-26 -162,-69 -198,-138 l -27,-53 -89,-29 c -88,-29 -90,-29 -110,-10 -12,10 -30,23 -42,29 -12,6 -30,35 -41,63 l -20,52 34,56 c 18,30 33,66 33,79 0,36 -68,187 -96,213 -20,19 -38,24 -92,26 -37,2 -91,-4 -121,-12 z m 171,-72 c 14,-16 51,-92 45,-93 -1,-1 -27,-2 -57,-4 -73,-4 -179,-40 -240,-82 l -50,-34 -23,46 c -22,43 -25,45 -40,29 -22,-21 -21,-32 3,-79 18,-36 18,-40 2,-62 -9,-13 -20,-24 -23,-24 -8,0 -39,81 -39,104 0,25 105,126 166,158 100,54 227,74 256,41 z m 42,-153 c 29,-11 33,-27 13,-55 -13,-17 -15,-17 -45,5 -26,19 -39,22 -76,17 -93,-13 -220,-103 -232,-165 -4,-22 -12,-32 -25,-32 -47,0 -25,55 51,123 96,86 240,135 314,107 z m -48,-137 c 38,-87 37,-94 -16,-108 -25,-6 -58,-19 -74,-27 l -30,-15 -27,58 c -45,95 -68,69 -29,-32 14,-33 17,-56 11,-62 -11,-11 -32,27 -52,91 -11,40 -11,44 12,68 35,37 113,75 172,83 4,1 19,-25 33,-56 z m 1096,9 c 124,-33 223,-90 259,-148 74,-121 -67,-204 -347,-204 -296,0 -544,107 -544,235 0,53 66,102 177,130 86,22 353,14 455,-13 z m -982,-192 c 18,-11 25,-6 -91,-69 -53,-29 -118,-70 -144,-92 -26,-21 -51,-39 -56,-39 -5,0 -9,16 -9,35 0,75 134,174 235,174 28,1 57,-3 65,-9 z m 250,-52 c 0,-109 168,-226 390,-272 229,-47 486,-20 601,62 41,29 79,87 79,120 0,35 18,34 82,-4 273,-159 486,-431 586,-744 C 3236,1800 3038,1205 2555,910 2148,661 1532,662 1034,913 809,1026 662,1160 531,1368 l -34,53 35,29 c 77,64 114,208 105,414 -10,245 -98,441 -208,463 -33,6 -33,8 8,133 112,341 405,634 773,771 96,36 100,36 100,-3 z m 217,-79 c 109,-52 294,-89 444,-89 95,0 232,26 290,55 36,19 49,22 49,12 0,-50 -106,-108 -233,-128 -104,-16 -297,-6 -402,20 -162,42 -295,132 -295,202 v 31 l 43,-37 c 23,-20 70,-50 104,-66 z M 449,2251 c 33,-24 83,-114 105,-191 41,-139 39,-358 -4,-472 -25,-66 -65,-108 -102,-108 -15,0 -28,2 -28,5 0,2 11,21 25,41 103,151 68,581 -56,700 -16,15 -29,31 -29,36 0,16 62,8 89,-11 z m 2746,-12 c 62,-119 59,-461 -5,-605 -11,-26 -23,-45 -25,-42 -3,3 2,50 11,104 22,125 22,386 2,497 -16,81 -9,98 17,46 z M 320,2225 c 141,-73 184,-577 59,-693 -49,-46 -108,-12 -159,91 -46,94 -63,190 -57,332 4,134 25,206 74,257 31,32 42,34 83,13 z M 825,935 c 156,-112 414,-218 642,-264 441,-90 895,-13 1197,203 75,55 79,56 102,41 l 24,-15 -59,-83 C 2581,609 2555,577 2506,540 2396,457 2247,404 2055,381 1730,341 1400,417 1194,577 891,813 802,868 690,892 l -57,11 56,43 c 31,24 57,43 58,44 1,0 36,-25 78,-55 z M 2846,834 c 5,-18 1,-32 -13,-47 -11,-12 -50,-67 -86,-123 -93,-142 -190,-231 -321,-294 -56,-26 -128,-55 -161,-64 -243,-64 -583,-60 -809,11 -158,49 -254,107 -501,303 -117,92 -240,158 -313,167 -41,5 -58,2 -87,-16 -20,-11 -38,-21 -41,-21 -2,0 -4,13 -4,29 0,20 9,36 27,51 25,19 37,22 101,18 90,-6 197,-56 319,-150 247,-191 296,-225 378,-264 230,-111 557,-143 845,-84 250,51 393,145 525,346 73,110 114,164 126,164 5,0 12,-11 15,-26 z"
       id="path1" />
    <path
       d="m 887,3743 c -7,-12 9,-47 27,-62 13,-11 17,-11 21,1 13,34 -31,90 -48,61 z"
       id="path2" />
    <path
       d="m 1700,3459 c 0,-6 14,-30 30,-55 l 31,-44 h 109 c 127,0 133,5 72,70 l -39,40 h -101 c -66,0 -102,-4 -102,-11 z"
       id="path3" />
    <path
       d="m 1588,3450 c -74,-22 -130,-85 -108,-120 7,-11 22,-10 82,3 40,9 88,19 106,23 37,7 37,15 -1,71 -23,34 -33,37 -79,23 z"
       id="path4" />
    <path
       d="m 1990,3445 c 0,-12 22,-50 43,-72 13,-15 32,-23 53,-23 18,0 56,-5 84,-11 28,-6 54,-8 58,-4 12,12 -54,62 -110,83 -63,23 -128,37 -128,27 z"
       id="path5" />
    <path
       d="m 1633,3309 c -87,-13 -118,-26 -104,-43 26,-31 230,-100 246,-84 10,10 -36,118 -55,128 -10,6 -20,9 -22,9 -2,-1 -31,-5 -65,-10 z"
       id="path6" />
    <path
       d="m 1790,3313 c 0,-4 12,-38 27,-75 24,-61 29,-68 59,-74 41,-8 180,-1 190,9 9,9 -13,76 -37,117 l -19,30 h -110 c -60,0 -110,-3 -110,-7 z"
       id="path7" />
    <path
       d="m 2072,3302 c 2,-4 14,-33 27,-65 28,-64 39,-69 101,-37 41,21 65,52 56,75 -2,7 -28,18 -56,24 -59,13 -133,15 -128,3 z"
       id="path8" />
    <path
       d="m 968,3019 c -20,-11 -24,-44 -8,-54 6,-3 19,-4 30,0 24,8 37,45 19,56 -17,11 -20,11 -41,-2 z"
       id="path9" />
    <path
       d="m 2545,2980 c -4,-6 23,-42 58,-80 36,-37 89,-98 117,-134 80,-99 107,-94 55,11 -42,84 -211,233 -230,203 z"
       id="path10" />
    <path
       d="m 829,2901 c -85,-54 -183,-181 -219,-284 -44,-125 -18,-115 80,31 41,61 103,143 138,181 34,38 62,74 62,80 0,21 -19,19 -61,-8 z"
       id="path11" />
    <path
       d="M 1660,2850 C 1329,2790 1077,2643 898,2406 661,2091 633,1672 827,1341 c 57,-96 190,-231 302,-306 225,-150 448,-215 736,-215 282,0 498,60 700,195 247,165 406,403 461,691 21,113 14,315 -14,419 -96,355 -364,604 -759,707 -107,27 -136,31 -303,34 -151,3 -204,0 -290,-16 z m 175,-407 c -6,-46 -23,-85 -76,-180 -22,-40 -23,-45 -9,-70 24,-43 74,-63 158,-63 180,0 374,109 469,261 20,33 39,58 43,57 18,-8 187,-203 198,-229 23,-55 26,-177 7,-308 -22,-158 -18,-216 26,-311 30,-68 34,-84 34,-165 0,-80 -3,-97 -30,-150 -60,-118 -195,-225 -393,-311 -128,-55 -218,-74 -357,-74 -330,0 -654,123 -795,301 -54,69 -73,106 -66,134 8,32 0,35 -44,13 -57,-28 -83,-19 -118,45 -34,60 -82,178 -82,201 0,20 58,22 84,3 16,-12 16,-15 2,-42 -9,-17 -16,-37 -16,-46 0,-19 24,-42 33,-33 3,3 20,-4 36,-16 36,-25 39,-15 11,34 -22,37 -15,52 20,41 11,-4 20,-4 20,0 0,17 -33,66 -60,89 -37,30 -99,36 -121,10 -12,-14 -14,-14 -20,3 -4,10 -8,37 -8,60 -1,41 0,43 39,54 60,18 110,0 157,-58 98,-118 123,-133 163,-93 25,25 25,58 0,138 -30,96 -27,122 25,197 56,83 78,156 73,245 l -3,67 45,-14 c 125,-39 350,46 485,183 39,39 72,72 74,73 2,0 0,-20 -4,-46 z m 1044,-166 c 68,-139 86,-218 85,-392 0,-124 -4,-164 -23,-235 -38,-143 -83,-235 -168,-349 -18,-24 -33,-42 -33,-40 0,2 7,26 15,53 8,27 15,71 15,98 0,38 5,55 25,76 51,55 70,110 70,207 0,81 -3,95 -28,138 -26,44 -52,63 -109,81 -28,8 -12,90 28,148 50,73 67,135 63,233 -5,101 2,98 60,-18 z m -122,-459 c 34,-38 43,-64 43,-122 0,-52 -24,-136 -39,-136 -8,0 -51,100 -51,118 0,7 12,24 27,38 20,18 24,27 15,36 -8,8 -18,7 -36,-6 l -26,-16 v 39 c 0,22 3,46 6,55 9,23 37,20 61,-6 z"
       id="path12" />
    <path
       d="m 2341,2191 c -33,-9 -49,-36 -35,-58 8,-13 29,-19 82,-24 48,-3 86,-13 121,-32 54,-28 60,-24 36,23 -20,38 -70,75 -120,89 -44,12 -49,12 -84,2 z"
       id="path13" />
    <path
       d="m 1515,2171 c -22,-10 -52,-30 -67,-43 -26,-26 -63,-87 -55,-94 2,-2 30,10 61,27 46,25 74,33 142,38 58,5 88,11 94,21 14,21 12,28 -10,50 -26,26 -109,27 -165,1 z"
       id="path14" />
    <path
       d="m 1524,1961 c -97,-44 -138,-173 -88,-273 13,-25 12,-27 -19,-39 -31,-12 -31,-12 43,-21 41,-5 102,-20 135,-33 65,-27 79,-25 48,6 l -21,21 24,35 c 48,72 37,185 -23,233 -34,27 -24,35 20,16 42,-17 82,-74 96,-134 12,-55 18,-61 27,-28 19,76 -27,179 -96,214 -54,27 -92,28 -146,3 z"
       id="path15" />
    <path
       d="m 2313,1959 c -44,-28 -83,-109 -83,-173 0,-67 31,-130 73,-147 42,-16 40,-14 27,-38 -14,-27 -6,-26 54,4 27,14 71,28 98,31 62,8 58,28 -6,32 -40,3 -47,6 -40,20 4,9 9,42 11,73 6,60 -19,128 -54,148 -16,9 -14,10 9,11 51,0 108,-85 108,-164 0,-38 18,-32 26,10 14,74 -18,161 -71,194 -43,26 -110,26 -152,-1 z"
       id="path16" />
    <path
       d="m 2064,1710 c -41,-9 -86,-41 -104,-74 -19,-37 -6,-43 29,-13 66,55 138,55 163,1 10,-22 9,-32 -10,-67 -25,-45 -23,-52 8,-42 29,9 60,62 60,102 0,63 -71,109 -146,93 z"
       id="path17" />
    <path
       d="m 1995,1550 c -8,-13 4,-32 16,-25 12,8 12,35 0,35 -6,0 -13,-4 -16,-10 z"
       id="path18" />
    <path
       d="m 1794,1430 c -4,-23 -17,-54 -30,-70 -13,-15 -24,-31 -24,-34 0,-13 39,-5 60,12 22,17 24,17 79,-2 83,-29 229,-28 294,1 43,20 67,46 54,59 -2,3 -28,-2 -56,-12 -41,-13 -75,-15 -159,-11 -128,6 -167,19 -179,61 -13,45 -32,44 -39,-4 z"
       id="path19" />
    <path
       d="m 2022,1243 c -83,-4 -92,-19 -25,-42 36,-13 43,-12 78,5 38,19 60,46 33,42 -7,-1 -46,-4 -86,-5 z"
       id="path20" />
    <path
       d="m 2145,1050 c -33,-37 -97,-53 -187,-48 -46,3 -91,9 -102,13 -32,14 -13,-17 23,-39 84,-49 196,-39 262,23 21,21 39,45 39,54 0,23 -13,21 -35,-3 z"
       id="path21" />
    <path
       d="m 234,2155 c -14,-22 -44,-107 -44,-126 0,-12 38,-21 60,-14 18,6 20,15 20,86 0,83 -8,96 -36,54 z"
       id="path22" />
    <path
       d="m 305,2106 c -4,-31 -5,-62 -1,-71 6,-17 71,-21 81,-4 8,12 -45,122 -62,127 -7,2 -14,-17 -18,-52 z"
       id="path23" />
    <path
       d="m 321,1971 c -11,-7 -13,-27 -8,-91 3,-45 9,-86 14,-91 6,-6 26,-6 49,-1 l 39,8 -3,65 c -5,109 -9,119 -45,119 -18,0 -38,-4 -46,-9 z"
       id="path24" />
    <path
       d="m 190,1896 c 0,-99 3,-106 53,-106 h 40 l -6,68 c -4,37 -7,77 -7,90 0,19 -5,22 -40,22 h -40 z"
       id="path25" />
    <path
       d="m 210,1723 c 0,-27 44,-116 68,-136 34,-31 40,-13 24,73 l -16,80 h -38 c -30,0 -38,-4 -38,-17 z"
       id="path26" />
    <path
       d="m 330,1704 c 0,-46 20,-124 32,-124 13,0 37,63 45,115 l 6,45 h -42 c -40,0 -41,-1 -41,-36 z"
       id="path27" />
    <path
       id="path1-22"
       style="fill:#f0b022;fill-opacity:1"
       d="m 2407.7832,565.00195 c -9.2645,0.002 -18.5414,3.13887 -25.7298,9.02121 -8.1344,6.54851 -13.4358,16.25414 -15.2441,26.48183 -1.984,10.89007 -0.2156,22.28525 4.2454,32.35829 3.2932,7.08192 9.3376,12.62635 16.2734,16.07422 9.1891,4.58616 19.6884,6.07324 29.8693,5.41811 10.1507,-0.71787 20.362,-3.64215 28.6832,-9.64638 6.0227,-4.34853 10.8216,-10.53379 12.9664,-17.69277 3.1213,-9.62937 2.5708,-20.32057 -1.2571,-29.66844 -5.0894,-12.64328 -15.6438,-22.76308 -28.1471,-28.01427 -6.8263,-2.89731 -14.246,-4.36655 -21.6596,-4.3318 z"
       transform="translate(0,-2.5000001e-5)" />
    <path
       d="m 2374,679 c -23,-12 -44,-49 -44,-78 0,-23 35,-59 64,-67 28,-7 81,18 90,41 27,70 -44,137 -110,104 z m 70,-55 c 8,-21 -11,-44 -36,-44 -21,0 -33,22 -24,45 7,20 52,19 60,-1 z"
       id="path28" />
    <path
       id="path1-37"
       style="fill:#f0b022;fill-opacity:1"
       d="m 1415.6914,517.64841 c -10.0399,-0.13188 -19.9807,3.50701 -27.8101,9.74133 -4.6817,3.72316 -8.7223,8.221 -12.1848,13.08739 -5.3284,7.55119 -8.9461,16.57014 -8.991,25.90057 -0.1061,8.16177 2.7595,16.34047 8.0601,22.56368 5.7562,6.87005 14.0773,11.23609 22.7597,13.11999 7.571,1.70482 15.4313,1.61143 23.0938,0.61829 8.5041,-1.03787 17.1261,-3.08538 24.3969,-7.79703 5.9217,-3.79038 10.5996,-9.52798 12.9166,-16.18355 2.5092,-7.09451 2.4617,-14.83038 1.2569,-22.17958 -1.7621,-10.4233 -6.8695,-20.34392 -14.739,-27.46255 -7.6713,-7.04385 -17.9244,-11.23285 -28.3515,-11.40646 -0.1357,-0.009 -0.2718,-8.6e-4 -0.4076,-0.002 z"
       transform="translate(0,-2.5000001e-5)" />
    <path
       d="m 1373,628 c -53,-25 -43,-116 14,-136 80,-27 138,64 78,123 -26,26 -56,31 -92,13 z m 72,-62 c 0,-30 -31,-44 -51,-24 -24,24 -11,50 23,46 20,-2 28,-9 28,-22 z"
       id="path29" />
    <path
       id="path1-59"
       style="fill:#f0b022;fill-opacity:1"
       d="m 1963.1465,437.78516 c -8.1421,0.10078 -16.0705,3.20784 -22.5134,8.1077 -11.9194,8.75214 -20.7013,21.96774 -23.3566,36.58547 -1.747,9.51837 -0.6226,19.74342 4.1647,28.24929 3.1023,5.59218 7.7564,10.26327 13.2323,13.54591 11.2698,7.14868 25.3348,9.17299 38.3519,6.74991 10.1531,-1.88979 20.0192,-6.51462 27.1478,-14.11071 5.1406,-5.4284 8.5696,-12.49164 9.4023,-19.93985 1.0882,-9.25063 -0.9546,-18.63807 -4.5794,-27.13694 -4.2702,-9.85552 -10.8827,-18.89834 -19.768,-25.06016 -6.4497,-4.46556 -14.1945,-7.13828 -22.0816,-6.99062 z"
       transform="translate(0,-2.5000001e-5)" />
    <path
       d="m 1905,535 c -32,-31 -32,-69 0,-100 52,-52 135,-21 135,50 0,71 -83,102 -135,50 z m 89,-37 c 5.285,-19.08058 -17,-57 -42,-42 -22,14 -28,44 -10,55 18,12 47.2308,4.21849 52,-13 z"
       id="path30" />
    <path
       d="m 2233.7996,2431.3645 c -33,-86 -173,-201 -246,-201 -18,0 -11,8 32,37 82,55 165,144 197,212 27,58 28,59 31,29 2,-17 -4,-52 -14,-77 z"
       id="path1-7"
       style="fill:#fdfdfd;fill-opacity:1" />
    <path
       d="m 1277.7082,2536.7037 c 2,-12 -34,-55 -110,-130 -89,-88 -123,-128 -154,-187 -38.00002,-73 -39.00002,-74 -42.00002,-42 -8,81 73.00002,252 149.00002,316 70,59 150,81 157,43 z"
       id="path1-5"
       style="fill:#fdfdfd;fill-opacity:1" />
    <path
       d="m 1448.4138,2642.0799 c 7,-51 -74,-87 -97,-43 -17,30 22,73 63,69 24,-2 32,-8 34,-26 z"
       id="path1-35"
       style="fill:#fdfdfd;fill-opacity:1" />
    <path
       d="m 1373.8526,1550.0309 c -12,-8 -22,-26 -22,-39 0,-60 162,-117 245,-85 30,12 39,31 31,66 -15,58 -195,99 -254,58 z"
       id="path19-2"
       style="fill:#f8a889;fill-opacity:1" />
    <path
       d="m 2430.5914,1560.1637 c -27,-8 -57,-27 -72,-45 -31,-36 -31,-40 -8,-69 14,-18 28,-22 69,-22 129,1 228,100 138,138 -42,17 -66,17 -127,-2 z"
       id="path18-9"
       style="fill:#f8a889;fill-opacity:1" />
  </g>
  <path
     style="font-weight:300;font-size:138px;line-height:0;font-family:'Noto Sans';-inkscape-font-specification:'Noto Sans Light';text-align:center;letter-spacing:11.25px;text-anchor:middle;fill:#2173bd;stroke:#000000;stroke-width:13.5;stroke-linejoin:round;paint-order:stroke fill markers"
     d="m 43.975909,377.61626 q 12.558,0 19.182,6.486 6.624,6.486 6.624,20.424 v 47.886 h -7.728 v -47.472 q 0,-10.626 -4.83,-15.594 -4.83,-4.968 -14.214,-4.968 -12.006,0 -18.078,7.038 -6.072,7.038 -6.072,20.976 v 40.02 h -7.728 v -73.416 h 6.21 l 1.242,12.696 h 0.414 q 2.07,-4.002 5.52,-7.176 3.45,-3.174 8.28,-4.968 4.968,-1.932 11.178,-1.932 z m 68.382091,1.38 v 73.416 h -7.728 v -73.416 z m -3.864,-27.186 q 2.622,0 4.002,1.656 1.38,1.518 1.38,4.278 0,2.898 -1.38,4.554 -1.38,1.518 -4.002,1.518 -2.484,0 -3.864,-1.518 -1.38,-1.656 -1.38,-4.554 0,-2.76 1.38,-4.278 1.38,-1.656 3.864,-1.656 z m 57.20398,62.928 -25.53,-35.742 h 9.108 l 21.114,30.36 21.252,-30.36 h 8.97 l -25.392,35.742 26.91,37.674 h -9.108 l -22.632,-32.292 -22.494,32.292 h -8.97 z m 70.86595,-35.742 v 73.416 h -7.728 v -73.416 z m -3.864,-27.186 q 2.622,0 4.002,1.656 1.38,1.518 1.38,4.278 0,2.898 -1.38,4.554 -1.38,1.518 -4.002,1.518 -2.484,0 -3.864,-1.518 -1.38,-1.656 -1.38,-4.554 0,-2.76 1.38,-4.278 1.38,-1.656 3.864,-1.656 z m 65.89798,101.982 q -14.766,0 -22.77,-9.384 -7.866,-9.522 -7.866,-27.876 0,-19.044 8.28,-28.98 8.418,-9.936 23.046,-9.936 6.21,0 10.764,1.932 4.554,1.794 7.728,4.968 3.312,3.174 5.106,7.176 h 0.552 q -0.138,-3.312 -0.414,-7.176 -0.138,-4.002 -0.138,-7.176 v -29.808 h 7.866 v 104.88 h -6.348 l -1.104,-12.834 h -0.414 q -1.932,3.864 -5.106,7.176 -3.174,3.174 -7.866,5.106 -4.692,1.932 -11.316,1.932 z m 0.966,-6.762 q 12.834,0 18.078,-7.728 5.382,-7.728 5.382,-22.356 v -1.242 q 0,-15.18 -5.382,-23.184 -5.244,-8.142 -17.526,-8.142 -11.868,0 -17.94,8.418 -6.072,8.28 -6.072,23.874 0,14.904 5.796,22.632 5.796,7.728 17.664,7.728 z m 54.44411,-68.034 h 8.418 l 17.388,45.678 q 1.518,4.002 2.76,7.452 1.242,3.45 2.208,6.486 0.966,2.898 1.656,5.382 h 0.414 q 0.966,-3.174 2.622,-8.142 1.656,-5.106 3.864,-11.04 l 17.112,-45.816 h 8.418 l -33.12,86.526 q -2.484,6.348 -5.52,10.902 -3.036,4.554 -7.176,6.9 -4.14,2.484 -9.936,2.484 -2.622,0 -4.83,-0.414 -2.07,-0.276 -4.002,-0.828 v -6.624 q 1.794,0.414 3.588,0.69 1.932,0.414 4.278,0.414 3.864,0 6.762,-1.656 2.898,-1.518 5.106,-4.83 2.208,-3.174 4.002,-8.004 l 4.83,-12.42 z"
     id="text1"
     aria-label="nixidy" />
</svg>
