<?xml version="1.0" encoding="UTF-8" standalone="no"?>
<svg
   version="1.0"
   width="325pt"
   height="325pt"
   viewBox="0 0 325 325"
   preserveAspectRatio="xMidYMid"
   id="svg27"
   xmlns="http://www.w3.org/2000/svg"
   xmlns:svg="http://www.w3.org/2000/svg">
  <defs
     id="defs27" />
  <metadata
     id="metadata1">
Created by potrace 1.16, written by Peter Selinger 2001-2019
</metadata>
  <g
     transform="matrix(0.1,0,0,-0.1,-7.25,346.02598)"
     fill="#000000"
     stroke="none"
     id="g27"
     style="fill:#ffffff;fill-opacity:1">
    <path
       id="path1"
       style="fill:#ffffff;fill-opacity:1;stroke-width:1.01258"
       d="m 893.33317,3459.8665 c -37.40286,2.0285 -91.98686,-4.0542 -122.3135,-12.1684 -163.76386,-45.6424 -324.50097,-189.6655 -324.50097,-290.0787 0,-36.5139 68.73939,-189.6774 95.02248,-210.9772 9.09799,-8.1142 40.44836,-16.2274 68.75322,-19.2702 49.53351,-5.0714 51.54541,-6.0807 70.75228,-50.7088 20.21776,-44.6281 20.22468,-46.6547 2.02869,-99.397 -16.1742,-46.6567 -16.18013,-60.8655 -6.07125,-100.4222 l 12.1277,-46.6527 -73.78792,-83.1725 c -91.99081,-103.4561 -143.54511,-179.5287 -201.16573,-296.1704 -43.46818,-87.2276 -89.97692,-215.0233 -104.12936,-286.0225 -6.06532,-28.3997 -16.1673,-37.5233 -73.78792,-65.923 C 178.64028,1870.5032 163.46807,1857.3206 136.1741,1810.664 93.716797,1739.6647 72.5,1641.274 72.5,1515.5039 c 0,-187.6409 55.59786,-362.1041 140.51245,-439.189 36.39197,-33.4711 120.29666,-67.9436 162.75395,-67.9436 9.09799,0 29.30786,-25.3648 47.50384,-58.83588 C 511.2175,789.27994 647.68837,636.1234 798.31068,527.59596 1108.6532,306.48397 1577.7053,180.71187 1965.8863,216.2115 c 376.0503,34.48536 628.7704,143.01577 857.2311,368.18486 137.4807,135.91287 235.5458,282.98871 297.2099,447.30124 15.1634,39.5567 25.2683,50.7049 61.6603,66.9333 54.5879,24.3426 86.9373,74.043 117.264,178.5134 20.2177,70.9992 23.2484,104.4803 23.2484,263.7215 0,162.284 -3.0307,190.6808 -23.2484,255.5944 -24.2613,79.1134 -64.692,134.8906 -111.1928,154.1619 -22.2396,9.1285 -32.3533,26.3701 -55.6037,95.3408 -119.2848,345.8679 -346.7317,623.7832 -648.9872,790.1243 -68.7404,37.5282 -80.8721,48.6813 -86.9374,77.081 -42.4573,208.9407 -495.3391,344.8546 -848.139,254.5841 -102.0997,-26.3712 -163.7668,-69.9731 -200.1587,-139.9581 l -27.2911,-53.7695 -89.9729,-29.4031 c -88.9582,-29.414 -90.975,-29.419 -111.1928,-10.1477 -12.1306,10.1427 -30.3237,23.3322 -42.4543,29.4179 -12.1307,6.0856 -30.3277,35.5027 -41.4475,63.9024 l -20.2275,52.7294 34.3839,56.8004 c 18.196,30.4283 33.3475,66.9412 33.3475,80.1267 0,36.514 -68.7315,189.6724 -97.03628,216.0436 -20.2178,19.2712 -38.4207,24.3436 -93.00865,26.3722 z M 875.77096,3390.66 c 32.19244,1.5512 57.12307,-3.4351 68.11648,-15.9868 14.15243,-16.2284 51.55528,-93.3162 45.48998,-94.3305 -1.0109,-1.0143 -27.30584,-2.0275 -57.63248,-4.0561 -73.79483,-4.0571 -180.94895,-40.573 -242.61312,-83.1726 l -50.53947,-34.4843 -23.24845,46.6527 c -22.23954,43.6138 -25.27714,45.6463 -40.44046,29.4179 -22.23953,-21.2998 -21.22568,-32.4558 3.03563,-80.1267 18.19598,-36.5139 18.2029,-40.5779 2.02869,-62.892 -9.09799,-13.1855 -20.2306,-24.3367 -23.26326,-24.3367 -8.08711,0 -39.41871,82.1603 -39.41871,105.4886 0,25.3569 106.13929,127.7967 167.80346,160.2535 63.1805,34.2318 137.02764,54.9877 190.68171,57.573 z m 61.8083,-163.1656 c 18.21523,-0.1014 34.73644,-2.6833 48.76256,-8.0082 29.31568,-11.157 33.35238,-27.3904 13.1346,-55.7901 -13.1416,-17.2427 -15.1633,-17.2328 -45.48997,5.0813 -26.28309,19.2712 -39.42068,22.3061 -76.82354,17.2348 -94.01258,-13.1856 -222.39734,-104.4704 -234.528,-167.3554 -4.04355,-22.3141 -12.13559,-32.4489 -25.27713,-32.4489 -47.51174,0 -25.26628,55.7732 51.56121,124.744 78.84926,70.8724 189.72759,116.9804 268.66027,116.5425 z m -33.02168,-90.1408 c 4.18361,0.5832 19.21674,-25.6331 33.25861,-56.83 38.41374,-88.2419 37.4068,-95.33 -16.17027,-109.5299 -25.2722,-6.0856 -58.63544,-19.283 -74.80965,-27.3973 l -30.32664,-15.2141 -27.29102,58.8359 c -45.48996,96.3561 -68.74433,69.9781 -29.3197,-32.4637 14.15243,-33.4711 17.18609,-56.7915 11.12076,-62.8772 -11.11977,-11.157 -32.3504,27.3815 -52.56816,92.2951 -11.11977,40.571 -11.12273,44.6261 12.1277,68.9687 35.38108,37.5282 114.23232,76.0687 173.87471,84.1829 0.0315,0.01 0.0707,0.025 0.10366,0.029 z m 905.14952,-22.4645 c 91.2326,-2.6625 184.4831,-11.5354 236.0384,-25.2281 125.3501,-33.4711 225.427,-91.2927 261.819,-150.1206 74.8057,-122.7273 -67.7216,-206.9063 -350.7703,-206.9063 -299.2228,0 -549.922,108.5324 -549.922,238.3596 0,53.7566 66.7156,103.4462 178.9242,131.8459 43.4682,11.157 132.6781,14.7119 223.9107,12.0495 z M 987.34872,2904.0456 c 28.30488,1.0143 57.61568,-3.0368 65.70278,-9.1225 18.1959,-11.157 25.2761,-6.0946 -91.98687,-69.9939 -53.57706,-29.414 -119.27886,-70.9914 -145.56195,-93.3054 -26.28308,-21.2998 -51.55627,-39.5657 -56.61071,-39.5657 -5.05444,0 -9.10687,16.2384 -9.10687,35.5096 0,76.0706 135.46392,176.4779 237.56362,176.4779 z m 389.19678,-37.5301 43.4612,-37.5302 c 23.2505,-20.2855 70.7662,-50.7048 105.1364,-66.9333 110.1868,-52.7423 297.1951,-90.2744 448.8283,-90.2744 96.0344,0 234.536,26.3761 293.1675,55.7901 36.3919,19.2712 49.5325,22.3111 49.5325,12.1684 0,-50.7138 -107.1522,-109.5398 -235.535,-129.8253 -105.1324,-16.2284 -300.2456,-6.0906 -406.3888,20.2805 -163.7639,42.5996 -298.2021,133.8864 -298.2021,204.8856 z m 576.2062,-391.5112 c 168.8183,-3.0429 198.1222,-7.0989 306.2872,-34.4844 399.3008,-104.4703 670.2277,-357.0169 767.2729,-717.0846 28.3049,-105.4846 35.385,-310.3722 14.1564,-424.9853 C 2984.8694,1006.3388 2824.1371,764.94526 2574.4478,597.58986 2370.2484,460.66271 2151.8917,399.8062 1866.8213,399.8062 c -291.1358,0 -516.5599,65.92294 -744.0097,218.06421 C 1009.5922,693.94105 875.13718,830.87414 817.51656,928.24456 621.40429,1263.9697 649.71015,1688.951 889.2906,2008.4476 c 180.9489,240.3832 435.6897,389.4757 770.2937,450.3322 86.9363,16.2284 140.5233,19.2673 293.1674,16.2245 z M 366.70395,1871.0747 c 20.76072,-0.1089 51.63525,-7.8051 68.69399,-19.8497 33.3593,-24.3426 83.9037,-115.6283 106.14324,-193.7275 41.44641,-140.9843 39.42562,-363.1125 -4.04256,-478.7398 -25.2722,-66.9422 -65.70476,-109.5299 -103.10762,-109.5299 -15.16332,0 -28.29796,2.0236 -28.29796,5.0664 0,2.0286 11.1099,21.3008 25.26234,41.5863 104.12146,153.1556 68.73939,589.2989 -56.61072,709.9976 -16.17421,15.2141 -29.3049,31.4336 -29.3049,36.505 0,6.0856 8.80776,8.757 21.26419,8.6916 z M 263.78884,1838.819 c 10.75599,0.2062 23.07766,-4.6475 41.21047,-13.9661 142.53521,-74.0421 186.00734,-585.2397 59.64634,-702.8957 -49.53351,-46.6566 -109.18479,-12.1604 -160.74008,92.3099 -46.50084,95.3419 -63.68298,192.7044 -57.61765,336.7315 4.04355,135.9128 25.27614,208.9477 74.80965,260.6757 17.62736,18.2569 28.86214,26.8795 42.69127,27.1447 z" />
    <path
       id="path13"
       style="fill:#ffffff;fill-opacity:1;stroke-width:1.01258"
       d="m 1840.8926,2092.7345 c -2.0218,-1.0143 -35.385,-34.4785 -74.8097,-74.0352 -136.4699,-138.9557 -363.9296,-225.172 -490.2906,-185.6153 l -45.4899,14.2038 3.0356,-67.9584 c 5.0544,-90.2705 -17.1781,-164.3076 -73.7879,-248.4925 -52.5661,-76.0706 -55.6038,-102.4487 -25.2771,-199.8191 25.2722,-81.142 25.2722,-114.6161 0,-139.973 -40.4355,-40.571 -65.7009,-25.3538 -164.76785,94.3306 -47.51173,58.828 -98.0581,77.0929 -158.71138,58.8359 -39.42464,-11.157 -40.44441,-13.1945 -39.43352,-54.7798 0,-23.3283 4.05639,-50.7137 8.09994,-60.8565 6.06533,-17.2427 8.08216,-17.2456 20.21282,-3.0458 22.23953,26.3712 84.91065,20.2954 122.3135,-10.1329 27.29398,-23.3283 60.65331,-73.0317 60.65331,-90.2744 0,-4.0571 -9.09309,-4.0571 -20.21285,0 -35.38108,11.157 -42.46718,-4.0581 -20.22764,-41.5863 28.30486,-49.6995 25.28603,-59.8412 -11.10594,-34.4844 -16.17421,12.1713 -33.36523,19.2673 -36.39789,16.2245 -9.09799,-9.1285 -33.36227,14.2028 -33.36227,33.474 0,9.1285 7.07227,29.41 16.17026,46.6527 14.15243,27.3854 14.16032,30.4253 -2.01388,42.5966 -26.28309,19.2713 -84.92348,17.2546 -84.92348,-3.0309 0,-23.3284 48.5246,-143.0187 82.8948,-203.87525 35.38108,-64.91361 61.6721,-74.04209 119.29269,-45.64239 44.47908,22.31406 52.57008,19.27817 44.48298,-13.17864 -7.0762,-28.3997 12.1218,-65.93188 66.7097,-135.91683 142.5352,-180.54098 470.063,-305.29286 803.656,-305.29286 140.5134,0 231.4904,19.26033 360.8841,75.04547 200.1558,87.22766 336.6286,195.75612 397.2819,315.44056 27.294,53.75658 30.3266,70.99923 30.3266,152.14124 0,82.1563 -4.0425,98.3847 -34.3691,167.3554 -44.4791,96.3561 -48.5237,155.1851 -26.2841,315.4406 19.2068,132.87 16.1721,256.6097 -7.0783,312.3948 -11.1197,26.3712 -181.9627,224.1538 -200.1587,232.268 -4.0436,1.0143 -23.2435,-24.3397 -43.4612,-57.8107 -96.0344,-154.1699 -292.1458,-264.7169 -474.1056,-264.7169 -84.9146,0 -135.457,20.2736 -159.7183,63.8874 -14.1524,25.3569 -13.1475,30.4333 9.092,71.0043 53.5771,96.3561 70.7583,135.9128 76.8236,182.5695 3.9961,26.0621 6.0213,46.1847 4.1166,46.6527 -0.015,0 -0.043,0 -0.059,0 z m 546.1608,-295.0115 c 11.2462,-0.2535 23.6206,-3.2895 45.8602,-9.3751 50.5444,-14.1999 101.0888,-51.732 121.3065,-90.2745 24.2614,-47.6709 18.2049,-51.726 -36.383,-23.3263 -35.3811,19.2713 -73.8057,29.4061 -122.3283,32.4489 -53.5771,5.0714 -74.7929,11.1659 -82.88,24.3515 -14.1524,22.314 2.0169,49.6926 35.3762,58.821 17.6905,5.0714 27.8023,7.6081 39.0484,7.3545 z m -779.2672,-8.3648 c 31.3375,-0.2536 58.8842,-7.0949 72.0257,-20.2805 22.2396,-22.3141 24.2514,-29.4239 10.099,-50.7237 -6.0653,-10.1428 -36.391,-16.2195 -95.0225,-21.2909 -68.7403,-5.0714 -97.0472,-13.1835 -143.5481,-38.5404 -31.3375,-17.2427 -59.6384,-29.4259 -61.6602,-27.3973 -8.0871,7.0999 29.3207,68.9697 55.6038,95.3409 15.1633,13.1855 45.492,33.4789 67.7315,43.6217 28.3049,13.1856 63.4332,19.5238 94.7708,19.2702 z m 788.3593,-213.6367 c 27.673,0.1268 55.4745,-6.456 77.2086,-19.6416 53.577,-33.4711 85.9265,-121.717 71.774,-196.7733 -8.0871,-42.5996 -26.2841,-48.6902 -26.2841,-10.1478 0,80.1278 -57.6235,166.3451 -109.1788,166.3451 -23.2504,-1.0143 -25.2664,-2.0296 -9.0921,-11.158 35.381,-20.2855 60.6474,-89.2492 54.582,-150.1058 -2.0217,-31.4425 -7.0772,-64.9215 -11.1207,-74.05 -7.0763,-14.1998 0,-17.2378 40.4404,-20.2806 64.6969,-4.0571 68.7463,-24.3495 6.0712,-32.4637 -27.2939,-3.0428 -71.7859,-17.2387 -99.0798,-31.4386 -60.6533,-30.4282 -68.7345,-31.4415 -54.582,-4.056 13.1415,24.3426 15.1662,22.312 -27.2911,38.5404 -42.4573,17.2427 -73.8027,81.139 -73.8027,149.0955 0,64.9136 39.4227,147.068 83.9018,175.4677 21.2287,13.6927 48.7802,20.5399 76.4533,20.6667 z m -800.2354,-0.3714 c 23.2505,-0.5071 46.494,-7.6129 73.788,-21.3057 69.7513,-35.4996 116.2581,-139.969 97.0512,-217.0539 -9.098,-33.4711 -15.1752,-27.3924 -27.3059,28.3928 -14.1524,60.8565 -54.5791,118.6741 -97.0363,135.9168 -44.4791,19.2712 -54.5978,11.161 -20.2276,-16.2244 60.6533,-48.6852 71.7859,-163.2963 23.2632,-236.3241 l -24.2702,-35.5096 21.2346,-21.2908 c 31.3375,-31.4426 17.1821,-33.4771 -48.5256,-6.0917 -33.3593,13.1856 -95.0235,28.4028 -136.4699,33.4741 -74.8057,9.1285 -74.7988,9.1344 -43.4613,21.3057 31.3375,12.1713 32.3475,14.194 19.206,39.5508 -50.5444,101.4276 -9.105,232.272 88.9511,276.9001 27.294,12.6784 50.5523,18.767 73.8027,18.2599 z m 500.1824,-269.6199 c 64.5289,1.0678 119.4851,-41.6427 119.4851,-97.5546 0,-40.571 -31.3375,-94.3247 -60.6533,-103.4531 -31.3375,-10.1428 -33.3572,-3.0458 -8.085,42.5966 19.2068,35.4996 20.2226,45.6443 10.1137,67.9584 -25.2722,54.7708 -98.064,54.7748 -164.7826,-1.0104 -35.3811,-30.4282 -48.5266,-24.3495 -29.3197,13.1787 18.1959,33.4711 63.6898,65.9319 105.1363,75.0603 9.477,2.0286 18.887,3.0716 28.1055,3.2241 z m -282.9204,-249.7999 c 7.1437,-0.099 14.9284,-11.262 21.2939,-33.37 12.1306,-42.5996 51.5592,-55.78121 180.9529,-61.86686 84.9146,-4.0571 119.2936,-2.02757 160.74,11.15801 28.3049,10.14275 54.5889,15.21116 56.6107,12.16833 13.1415,-13.18558 -11.1287,-39.56069 -54.5969,-59.84619 -65.7077,-29.41398 -213.2914,-30.4243 -297.1951,-1.01032 -55.5988,19.27123 -57.6196,19.27817 -79.8591,2.03549 -21.2287,-17.24268 -60.6533,-25.35391 -60.6533,-12.16833 0,3.04282 11.1138,19.27023 24.2554,34.48436 13.1415,16.2284 26.283,47.661 30.3266,70.98931 3.6487,25.1033 10.5204,37.5324 18.1249,37.4262 z M 2117.016,834.31515 c 19.9056,0.26372 -1.8954,-24.93096 -37.9083,-42.99774 -35.381,-17.24268 -42.4602,-18.26686 -78.8522,-5.08129 -67.7295,23.32833 -58.6265,38.53949 25.2772,42.59659 40.4355,1.01427 79.8611,4.06701 86.9373,5.08128 1.7058,0.25357 3.219,0.38357 4.546,0.40116 z m 59.9869,-181.78208 c 5.3587,-0.1054 8.2481,-5.46758 8.2481,-16.40273 0,-9.12848 -18.19,-33.48 -39.4187,-54.77978 -66.7186,-62.88506 -179.9401,-73.02583 -264.8547,-23.32635 -36.3919,22.31406 -55.5968,53.7655 -23.2484,39.56565 11.1198,-4.0571 56.6067,-10.15067 103.1076,-13.1935 90.9799,-5.07138 155.6787,11.16 189.0381,48.68818 11.8147,12.93201 21.0549,19.56797 27.128,19.44853 z" />
    <path
       d="m 2239.9295,2033.599 c -33.3593,-87.2276 -174.8836,-203.8693 -248.6784,-203.8693 -18.196,0 -11.1198,8.1142 32.3484,37.5282 82.8928,55.7851 166.7965,146.0556 199.1449,215.0263 27.294,58.828 28.3049,59.8423 31.3375,29.414 2.0218,-17.2427 -4.0435,-52.7423 -14.1524,-78.0992 z"
       style="fill:#ffffff;fill-opacity:1;stroke-width:1.01258"
       id="path1-6" />
    <path
       d="m 2769.0186,1411.5499 c 34.3702,-38.5424 43.4682,-64.9136 43.4682,-123.7415 0,-52.7423 -24.2613,-137.9415 -39.4247,-137.9415 -8.0871,0 -51.5553,101.4276 -51.5553,119.6845 0,7.0999 12.1307,24.3426 27.294,38.5425 20.2178,18.2569 24.2613,27.3854 15.1633,36.5139 -8.0871,8.1142 -18.1959,7.0999 -36.3919,-6.0857 l -26.2831,-16.2284 v 39.5568 c 0,22.314 3.0327,46.6566 6.0653,55.7851 9.098,23.3283 37.4029,20.2855 61.6642,-6.0857 z"
       style="fill:#ffffff;fill-opacity:1;stroke-width:1.01258"
       id="path1-7" />
  </g>
</svg>
